<svg width="262" height="35" viewBox="0 0 262 35" fill="none" xmlns="http://www.w3.org/2000/svg">
<g clip-path="url(#clip0_56_3303)">
<path d="M261.589 16.4581C261.589 16.456 261.588 16.454 261.587 16.4523L248.603 0.554497C248.297 0.208837 247.839 0 247.381 0H1.5279C0.684257 0 0.000279902 0.645276 9.66981e-05 1.44127C4.15285e-05 1.68096 1.18488e-06 1.92067 1.72082e-06 2.16038V16.2029C2.19672e-05 18.0032 0 18.3632 0 20.5236L8.34814e-05 32.2987C5.1203e-05 32.4793 8.4093e-05 32.7516 0.000127661 33.0596C0.000245864 33.8954 0.718425 34.5732 1.60428 34.5732H247.457C247.915 34.5732 248.374 34.3644 248.679 34.0188L261.665 18.1184C262.123 17.6368 262.123 16.9472 261.591 16.4648C261.59 16.4631 261.589 16.4606 261.589 16.4581Z" fill="#639CF1"/>
<path d="M89.7107 20.9662V11.2856H93.5945C94.6599 11.2856 95.4706 11.5115 96.0276 11.9633C96.5946 12.4058 96.8777 12.9912 96.8777 13.7196C96.8777 14.2543 96.7412 14.6922 96.4673 15.0334C96.1943 15.3653 95.8517 15.6142 95.4413 15.7802C95.7839 15.9 96.0963 16.0798 96.3794 16.3195C96.6725 16.5592 96.907 16.845 97.0829 17.1769C97.2588 17.4996 97.3467 17.8546 97.3467 18.2418C97.3467 18.7488 97.2148 19.2098 96.951 19.6247C96.6872 20.0396 96.3061 20.3668 95.8077 20.6066C95.3094 20.8463 94.6993 20.9662 93.9756 20.9662H89.7107ZM91.5869 19.4588H93.7997C94.3566 19.4588 94.7671 19.3389 95.0309 19.0992C95.3048 18.8594 95.4413 18.5137 95.4413 18.062C95.4413 17.6102 95.3002 17.2645 95.0162 17.0248C94.7332 16.785 94.3182 16.6652 93.7704 16.6652H91.5869V19.4588ZM91.5869 15.1579H93.4332C93.9609 15.1579 94.3475 15.061 94.5912 14.8674C94.8358 14.6646 94.9576 14.3649 94.9576 13.9685C94.9576 13.5905 94.8358 13.3001 94.5912 13.0973C94.3566 12.8944 93.9609 12.793 93.4039 12.793H91.5869V15.1579ZM101.236 21.1321C100.806 21.1321 100.405 21.0491 100.034 20.8832C99.6626 20.7172 99.3594 20.4821 99.1249 20.1779C98.9004 19.8644 98.7877 19.4956 98.7877 19.0716C98.7877 18.5644 98.9197 18.1496 99.1835 17.8269C99.4473 17.5042 99.8092 17.2645 100.268 17.1078C100.737 16.951 101.26 16.8727 101.836 16.8727H103.566C103.566 16.5592 103.512 16.2964 103.405 16.0844C103.307 15.8723 103.156 15.711 102.95 15.6004C102.755 15.4805 102.511 15.4206 102.218 15.4206C101.876 15.4206 101.568 15.4943 101.294 15.6419C101.03 15.7802 100.869 16.0153 100.81 16.3472H98.9343C98.9829 15.8493 99.1643 15.4206 99.4766 15.061C99.789 14.7015 100.19 14.4249 100.679 14.2313C101.167 14.0377 101.69 13.9409 102.247 13.9409C102.931 13.9409 103.507 14.0607 103.976 14.3004C104.456 14.5401 104.822 14.8813 105.076 15.3238C105.329 15.7571 105.457 16.2734 105.457 16.8727V18.9609C105.476 19.1637 105.555 19.302 105.691 19.3758C105.828 19.4495 106.009 19.4864 106.234 19.4864V20.9662C105.775 20.9662 105.388 20.9247 105.076 20.8417C104.773 20.7587 104.523 20.6388 104.328 20.4821C104.133 20.3162 103.966 20.1088 103.83 19.8598C103.605 20.2194 103.254 20.5236 102.775 20.7726C102.306 21.0122 101.793 21.1321 101.236 21.1321ZM101.778 19.7077C102.1 19.7077 102.393 19.6386 102.657 19.5003C102.931 19.362 103.151 19.1684 103.317 18.9194C103.483 18.6705 103.566 18.3847 103.566 18.062V18.0067H101.954C101.738 18.0067 101.533 18.0389 101.338 18.1035C101.143 18.1588 100.986 18.251 100.869 18.3801C100.752 18.4999 100.693 18.6658 100.693 18.8779C100.693 19.1637 100.796 19.3758 101.001 19.5141C101.216 19.6431 101.475 19.7077 101.778 19.7077ZM111.025 21.1321C110.292 21.1321 109.652 20.98 109.105 20.6758C108.558 20.3623 108.133 19.9381 107.829 19.4035C107.526 18.8594 107.375 18.2371 107.375 17.5365C107.375 16.845 107.522 16.2273 107.815 15.6834C108.118 15.1394 108.543 14.7153 109.09 14.4111C109.637 14.0976 110.282 13.9409 111.025 13.9409C111.904 13.9409 112.647 14.1483 113.253 14.5632C113.868 14.9781 114.283 15.5911 114.499 16.4025H112.491C112.403 16.1351 112.231 15.9092 111.978 15.7249C111.733 15.5312 111.41 15.4344 111.01 15.4344C110.61 15.4344 110.282 15.5312 110.028 15.7249C109.774 15.9185 109.584 16.1766 109.456 16.4993C109.339 16.8127 109.281 17.1584 109.281 17.5365C109.281 17.9145 109.339 18.2648 109.456 18.5875C109.584 18.9009 109.774 19.1545 110.028 19.3481C110.282 19.5325 110.61 19.6247 111.01 19.6247C111.391 19.6247 111.704 19.5463 111.948 19.3896C112.193 19.2237 112.373 18.9839 112.491 18.6705H114.499C114.371 19.1868 114.142 19.6293 113.81 19.9981C113.487 20.3668 113.087 20.6481 112.608 20.8417C112.139 21.0353 111.611 21.1321 111.025 21.1321ZM116.169 20.9662V11.2856H118.045V17.011L120.463 14.1068H122.882L119.686 17.5503L122.926 20.9662H120.507L118.045 18.0482V20.9662H116.169ZM127.351 24.1746C126.686 24.1746 126.091 24.1054 125.563 23.9671C125.035 23.8288 124.615 23.6029 124.303 23.2895C123.999 22.9853 123.848 22.5842 123.848 22.0863C123.848 21.7636 123.921 21.4824 124.068 21.2428C124.215 21.0122 124.439 20.8094 124.742 20.6343C124.488 20.496 124.297 20.3208 124.171 20.1088C124.043 19.8966 123.98 19.6524 123.98 19.3758C123.98 18.7673 124.282 18.2971 124.889 17.9652C124.674 17.7531 124.508 17.5134 124.39 17.2461C124.273 16.9695 124.215 16.6837 124.215 16.3887C124.215 15.8908 124.341 15.4621 124.596 15.1025C124.849 14.7337 125.201 14.4479 125.651 14.2451C126.1 14.0423 126.613 13.9409 127.19 13.9409C127.61 13.9409 127.996 13.9962 128.348 14.1068H130.957V15.4344H129.946C130.004 15.5911 130.053 15.7478 130.092 15.9046C130.141 16.0613 130.165 16.2227 130.165 16.3887C130.165 16.868 130.034 17.2922 129.77 17.661C129.506 18.0297 129.149 18.3201 128.7 18.5322C128.26 18.735 127.756 18.8365 127.19 18.8365C126.945 18.8365 126.721 18.818 126.516 18.7811C126.311 18.735 126.11 18.6658 125.915 18.5737C125.7 18.6751 125.592 18.8365 125.592 19.0577C125.592 19.4634 125.949 19.6662 126.662 19.6662H127.996C128.582 19.6662 129.081 19.7445 129.491 19.9013C129.911 20.0488 130.229 20.2839 130.444 20.6066C130.658 20.9293 130.766 21.3396 130.766 21.8374C130.766 22.3168 130.614 22.7317 130.312 23.0821C130.009 23.4324 129.598 23.6997 129.081 23.8842C128.562 24.0778 127.986 24.1746 127.351 24.1746ZM127.351 22.7916C127.82 22.7916 128.216 22.7178 128.538 22.5704C128.87 22.4321 129.037 22.22 129.037 21.9342C129.037 21.3902 128.636 21.1183 127.835 21.1183H126.78C126.388 21.1183 126.085 21.1874 125.871 21.3257C125.666 21.464 125.563 21.6668 125.563 21.9342C125.563 22.1462 125.646 22.3122 125.812 22.4321C125.978 22.5611 126.198 22.6533 126.472 22.7087C126.745 22.764 127.038 22.7916 127.351 22.7916ZM127.175 17.4535C127.546 17.4535 127.85 17.3567 128.084 17.1631C128.328 16.9602 128.451 16.7021 128.451 16.3887C128.451 16.0844 128.328 15.8308 128.084 15.6281C127.85 15.4252 127.546 15.3238 127.175 15.3238C126.803 15.3238 126.501 15.4252 126.267 15.6281C126.041 15.8308 125.929 16.0844 125.929 16.3887C125.929 16.7021 126.037 16.9602 126.252 17.1631C126.476 17.3567 126.784 17.4535 127.175 17.4535ZM132.457 20.9662V14.1068H134.318V15.1302C134.572 14.743 134.894 14.4479 135.285 14.2451C135.677 14.0423 136.111 13.9409 136.59 13.9409V15.794H136.092C135.495 15.794 135.051 15.9276 134.758 16.1951C134.465 16.4624 134.318 16.9095 134.318 17.5365V20.9662H132.457ZM141.457 21.1321C140.724 21.1321 140.069 20.9846 139.493 20.6896C138.926 20.3853 138.482 19.9612 138.159 19.4173C137.837 18.8733 137.676 18.2464 137.676 17.5365C137.676 16.7897 137.846 16.1489 138.189 15.6142C138.54 15.0702 139.004 14.6553 139.581 14.3696C140.167 14.0837 140.812 13.9409 141.516 13.9409C142.249 13.9409 142.903 14.093 143.48 14.3972C144.056 14.6922 144.51 15.1071 144.843 15.6419C145.185 16.1766 145.356 16.8081 145.356 17.5365C145.356 18.228 145.189 18.8456 144.858 19.3896C144.525 19.9336 144.066 20.3623 143.48 20.6758C142.903 20.98 142.228 21.1321 141.457 21.1321ZM141.486 19.5971C141.877 19.5971 142.214 19.5048 142.498 19.3205C142.791 19.1269 143.02 18.8733 143.187 18.5599C143.352 18.2371 143.436 17.8868 143.436 17.5088C143.436 17.0755 143.342 16.7067 143.157 16.4025C142.981 16.0982 142.747 15.8677 142.454 15.711C142.161 15.5542 141.838 15.4759 141.486 15.4759C141.105 15.4759 140.768 15.5635 140.475 15.7387C140.191 15.9138 139.967 16.1581 139.801 16.4716C139.644 16.7759 139.566 17.1308 139.566 17.5365C139.566 17.9421 139.649 18.3017 139.815 18.6152C139.991 18.9286 140.226 19.1729 140.519 19.3481C140.812 19.5141 141.135 19.5971 141.486 19.5971ZM149.87 21.1321C149.245 21.1321 148.712 21.0077 148.273 20.7587C147.833 20.5006 147.496 20.1502 147.261 19.7077C147.027 19.2559 146.91 18.7442 146.91 18.1726V14.1068H148.771V17.9099C148.771 18.4169 148.908 18.8318 149.182 19.1545C149.465 19.4772 149.875 19.6386 150.413 19.6386C150.97 19.6386 151.385 19.4818 151.659 19.1684C151.933 18.8549 152.069 18.4354 152.069 17.9099V14.1068H153.945V20.9662H152.069V20.1641C151.824 20.4775 151.502 20.7172 151.102 20.8832C150.71 21.0491 150.3 21.1321 149.87 21.1321ZM155.843 20.9662V14.1068H157.705V14.9089C157.959 14.5862 158.297 14.3465 158.716 14.1898C159.147 14.0239 159.576 13.9409 160.006 13.9409C160.847 13.9409 161.536 14.199 162.073 14.7153C162.61 15.2223 162.879 15.96 162.879 16.928V20.9662H161.017V17.1631C161.017 16.6468 160.876 16.2319 160.592 15.9185C160.319 15.5957 159.913 15.4344 159.376 15.4344C158.839 15.4344 158.423 15.5957 158.13 15.9185C157.847 16.2319 157.705 16.6468 157.705 17.1631V20.9662H155.843ZM167.797 21.1321C167.094 21.1321 166.488 20.9707 165.98 20.6481C165.481 20.3162 165.096 19.8782 164.822 19.3343C164.558 18.7811 164.426 18.1726 164.426 17.5088C164.426 16.845 164.563 16.2457 164.836 15.711C165.11 15.167 165.501 14.7383 166.009 14.4249C166.518 14.1022 167.113 13.9409 167.797 13.9409C168.266 13.9409 168.711 14.033 169.131 14.2175C169.561 14.4018 169.923 14.6692 170.216 15.0196V11.2856H172.107V20.9662H170.216V19.9843C169.971 20.3623 169.629 20.6481 169.19 20.8417C168.75 21.0353 168.286 21.1321 167.797 21.1321ZM168.281 19.5832C168.672 19.5832 169.009 19.4956 169.292 19.3205C169.585 19.1453 169.815 18.9056 169.981 18.6014C170.147 18.2879 170.23 17.9329 170.23 17.5365C170.23 17.0478 170.128 16.656 169.923 16.361C169.717 16.0568 169.464 15.8355 169.16 15.6972C168.857 15.5589 168.559 15.4898 168.266 15.4898C167.885 15.4898 167.548 15.5773 167.255 15.7525C166.972 15.9276 166.747 16.1674 166.581 16.4716C166.415 16.7666 166.332 17.1124 166.332 17.5088C166.332 17.8961 166.415 18.2464 166.581 18.5599C166.747 18.8733 166.976 19.1222 167.27 19.3067C167.563 19.491 167.9 19.5832 168.281 19.5832Z" fill="white"/>
</g>
<defs>
<clipPath id="clip0_56_3303">
<rect width="262" height="34.5733" fill="white"/>
</clipPath>
</defs>
</svg>
