<svg width="262" height="35" viewBox="0 0 262 35" fill="none" xmlns="http://www.w3.org/2000/svg">
<g clip-path="url(#clip0_56_3306)">
<path d="M261.589 16.4549L248.603 0.554498C248.298 0.208837 247.84 0 247.382 0H1.5313C0.920227 0 0.38554 0.273649 0.156387 0.763334C-0.0727655 1.24582 -0.0727655 1.80032 0.309156 2.21079L10.6974 14.8634C11.9195 16.3181 11.9195 18.32 10.6974 19.7747L0.38554 32.3553C0.00361867 32.773 0.00361867 33.3203 0.232771 33.81C0.538308 34.2925 0.996615 34.5733 1.60768 34.5733H247.458C247.916 34.5733 248.374 34.3645 248.68 34.0188L261.665 18.1184C262.123 17.6359 262.123 16.9446 261.589 16.4621V16.4549Z" fill="#347FF0"/>
<path d="M103.633 21.4515V11.771H107.228C107.904 11.771 108.497 11.8862 109.005 12.1167C109.524 12.338 109.931 12.6653 110.227 13.0986C110.523 13.5319 110.671 14.0574 110.671 14.6752C110.671 15.2929 110.523 15.823 110.227 16.2655C109.931 16.6988 109.524 17.0307 109.005 17.2612C108.497 17.4825 107.904 17.5931 107.228 17.5931H105.41V21.4515H103.633ZM105.41 16.0857H107.187C107.807 16.0857 108.242 15.9567 108.491 15.6985C108.741 15.4312 108.866 15.09 108.866 14.6752C108.866 14.2695 108.741 13.9376 108.491 13.6794C108.242 13.4121 107.807 13.2784 107.187 13.2784H105.41V16.0857ZM112.099 21.4515V14.5922H113.862V15.6155C114.103 15.2283 114.408 14.9333 114.778 14.7305C115.148 14.5276 115.56 14.4262 116.013 14.4262V16.2794H115.541C114.977 16.2794 114.556 16.4131 114.278 16.6804C114 16.9477 113.862 17.3949 113.862 18.0218V21.4515H112.099ZM120.622 21.6175C119.928 21.6175 119.308 21.4699 118.762 21.1749C118.225 20.8707 117.805 20.4466 117.499 19.9026C117.194 19.3587 117.041 18.7317 117.041 18.0218C117.041 17.2751 117.202 16.6343 117.527 16.0996C117.86 15.5556 118.299 15.1408 118.846 14.8549C119.401 14.5691 120.012 14.4262 120.678 14.4262C121.372 14.4262 121.991 14.5783 122.538 14.8826C123.084 15.1776 123.514 15.5925 123.829 16.1272C124.152 16.662 124.315 17.2935 124.315 18.0218C124.315 18.7133 124.157 19.3311 123.843 19.875C123.528 20.4189 123.093 20.8476 122.538 21.1611C121.991 21.4653 121.353 21.6175 120.622 21.6175ZM120.65 20.0824C121.02 20.0824 121.339 19.9902 121.608 19.8058C121.886 19.6122 122.102 19.3587 122.26 19.0452C122.417 18.7226 122.496 18.3722 122.496 17.9942C122.496 17.5609 122.408 17.1921 122.233 16.8878C122.066 16.5836 121.844 16.3531 121.566 16.1964C121.289 16.0397 120.983 15.9613 120.65 15.9613C120.289 15.9613 119.97 16.0488 119.692 16.224C119.423 16.3992 119.211 16.6435 119.054 16.957C118.905 17.2612 118.832 17.6162 118.832 18.0218C118.832 18.4275 118.91 18.787 119.068 19.1005C119.234 19.414 119.456 19.6583 119.734 19.8335C120.012 19.9994 120.317 20.0824 120.65 20.0824ZM129.978 21.6175C129.516 21.6175 129.081 21.5299 128.673 21.3547C128.276 21.1704 127.943 20.8891 127.674 20.5111V21.4515H125.897V11.771H127.66V15.5602C127.919 15.1823 128.252 14.901 128.659 14.7166C129.067 14.523 129.506 14.4262 129.978 14.4262C130.636 14.4262 131.2 14.5876 131.671 14.9103C132.153 15.2237 132.523 15.6525 132.782 16.1964C133.041 16.7311 133.171 17.3304 133.171 17.9942C133.171 18.6487 133.041 19.2527 132.782 19.8058C132.523 20.359 132.153 20.8015 131.671 21.1334C131.2 21.4561 130.636 21.6175 129.978 21.6175ZM129.506 20.0686C129.877 20.0686 130.2 19.9764 130.478 19.792C130.755 19.6076 130.973 19.3587 131.13 19.0452C131.288 18.7226 131.366 18.3722 131.366 17.9942C131.366 17.5609 131.278 17.1967 131.102 16.9017C130.936 16.5974 130.709 16.3669 130.422 16.2102C130.145 16.0535 129.839 15.9751 129.506 15.9751C129.145 15.9751 128.826 16.0627 128.548 16.2379C128.28 16.4131 128.068 16.6573 127.91 16.9708C127.753 17.2751 127.674 17.6254 127.674 18.0218C127.674 18.4275 127.753 18.787 127.91 19.1005C128.076 19.4048 128.298 19.6445 128.576 19.8197C128.854 19.9856 129.164 20.0686 129.506 20.0686ZM134.681 21.4515V11.771H136.458V21.4515H134.681ZM141.494 21.6175C140.772 21.6175 140.147 21.4608 139.62 21.1473C139.102 20.8338 138.7 20.4051 138.412 19.8611C138.126 19.3172 137.982 18.7041 137.982 18.0218C137.982 17.2935 138.13 16.662 138.426 16.1272C138.723 15.5925 139.134 15.1776 139.662 14.8826C140.189 14.5783 140.8 14.4262 141.494 14.4262C142.179 14.4262 142.776 14.5738 143.285 14.8688C143.803 15.1638 144.206 15.5695 144.492 16.0857C144.789 16.602 144.936 17.1967 144.936 17.8697C144.936 17.9896 144.932 18.1094 144.922 18.2293C144.914 18.3399 144.9 18.446 144.881 18.5474H139.773C139.8 18.87 139.884 19.1559 140.023 19.4048C140.171 19.6445 140.365 19.8335 140.606 19.9718C140.855 20.1008 141.138 20.1654 141.452 20.1654C141.777 20.1654 142.054 20.0962 142.285 19.958C142.526 19.8197 142.715 19.6076 142.854 19.3218H144.756C144.627 19.7274 144.418 20.1055 144.131 20.4558C143.845 20.8061 143.479 21.0874 143.035 21.2994C142.6 21.5114 142.086 21.6175 141.494 21.6175ZM139.787 17.3719H143.104C143.095 16.9109 142.924 16.5467 142.59 16.2794C142.267 16.012 141.883 15.8783 141.438 15.8783C141.059 15.8783 140.708 15.9982 140.383 16.2379C140.06 16.4684 139.861 16.8464 139.787 17.3719ZM146.432 21.4515V14.5922H148.195V15.3804C148.426 15.0578 148.722 14.818 149.083 14.6613C149.444 14.5046 149.824 14.4262 150.221 14.4262C150.74 14.4262 151.221 14.5369 151.665 14.7581C152.119 14.9702 152.47 15.3067 152.72 15.7677C152.952 15.3435 153.271 15.0163 153.678 14.7858C154.094 14.5461 154.548 14.4262 155.038 14.4262C155.566 14.4262 156.043 14.5369 156.468 14.7581C156.903 14.9702 157.245 15.2975 157.495 15.74C157.745 16.1825 157.87 16.7357 157.87 17.3995V21.4515H156.107V17.6485C156.107 17.1322 155.982 16.7219 155.732 16.4176C155.482 16.1134 155.099 15.9613 154.58 15.9613C154.072 15.9613 153.687 16.1134 153.428 16.4176C153.169 16.7219 153.039 17.1322 153.039 17.6485V21.4515H151.276V17.6485C151.276 17.1229 151.143 16.7126 150.874 16.4176C150.615 16.1134 150.241 15.9613 149.749 15.9613C149.333 15.9613 148.968 16.095 148.653 16.3623C148.348 16.6205 148.195 17.0492 148.195 17.6485V21.4515H146.432Z" fill="white"/>
</g>
<defs>
<clipPath id="clip0_56_3306">
<rect width="262" height="34.5733" fill="white"/>
</clipPath>
</defs>
</svg>
