<svg width="258" height="35" viewBox="0 0 258 35" fill="none" xmlns="http://www.w3.org/2000/svg">
<g clip-path="url(#clip0_56_3309)">
<path d="M258 16.4621V1.7286C258 0.773927 257.196 7.54231e-06 256.2 4.42874e-06C254.586 -6.13449e-07 251.211 2.59099e-08 243.603 2.64144e-08H1.50792C0.906175 2.64144e-08 0.379652 0.273649 0.153999 0.763334C-0.0716542 1.24582 -0.0716543 1.80032 0.304434 2.21079L10.5341 14.8634C11.7376 16.3181 11.7376 18.32 10.5341 19.7747L0.379652 32.3553C0.00356342 32.773 0.00356345 33.3203 0.229217 33.81C0.530087 34.2925 0.981392 34.5733 1.58314 34.5733H243.678C244.037 34.5733 252.413 34.5733 256.201 34.5733C257.197 34.5733 258 33.7994 258 32.8446V19.0833C258 18.3633 258 17.6431 258 16.923V16.4621Z" fill="#1B5BBC"/>
<path d="M105.51 21.6172C104.808 21.6172 104.168 21.5019 103.591 21.2714C103.022 21.0409 102.57 20.6998 102.234 20.2481C101.896 19.787 101.719 19.2155 101.7 18.5332H103.648C103.667 18.9849 103.836 19.363 104.154 19.6672C104.48 19.9715 104.928 20.1236 105.496 20.1236C105.987 20.1236 106.376 20.013 106.665 19.7917C106.954 19.5704 107.098 19.2708 107.098 18.8928C107.098 18.6992 107.064 18.5286 106.997 18.3811C106.939 18.2336 106.824 18.0953 106.651 17.9662C106.477 17.8371 106.232 17.7126 105.914 17.5928C105.606 17.4637 105.197 17.3208 104.688 17.1641C104.024 16.952 103.49 16.7078 103.085 16.4312C102.681 16.1546 102.387 15.8457 102.205 15.5046C102.032 15.1542 101.945 14.7762 101.945 14.3706C101.945 13.7621 102.094 13.255 102.393 12.8494C102.7 12.4345 103.109 12.1256 103.619 11.9228C104.139 11.7107 104.711 11.6047 105.337 11.6047C105.972 11.6047 106.544 11.7107 107.055 11.9228C107.574 12.1348 107.993 12.4483 108.31 12.8632C108.628 13.2781 108.791 13.7898 108.801 14.3983H106.824C106.814 14.0479 106.669 13.7436 106.391 13.4855C106.121 13.2274 105.746 13.0983 105.265 13.0983C104.88 13.0983 104.552 13.1951 104.283 13.3887C104.014 13.5823 103.879 13.8681 103.879 14.2461C103.879 14.5227 103.985 14.7578 104.197 14.9514C104.418 15.1451 104.711 15.3156 105.077 15.4631C105.453 15.6014 105.866 15.7489 106.319 15.9057C106.568 15.9886 106.847 16.0946 107.156 16.2237C107.473 16.3528 107.776 16.528 108.065 16.7493C108.354 16.9613 108.589 17.2333 108.772 17.5652C108.964 17.8878 109.061 18.2889 109.061 18.7683C109.061 19.3583 108.902 19.8654 108.585 20.2896C108.276 20.7136 107.853 21.0409 107.314 21.2714C106.785 21.5019 106.183 21.6172 105.51 21.6172ZM114.215 21.6172C113.493 21.6172 112.849 21.4696 112.281 21.1746C111.723 20.8704 111.285 20.4463 110.967 19.9023C110.65 19.3583 110.491 18.7314 110.491 18.0215C110.491 17.2748 110.659 16.6339 110.996 16.0993C111.342 15.5553 111.8 15.1404 112.367 14.8546C112.944 14.5688 113.58 14.4259 114.272 14.4259C114.994 14.4259 115.639 14.578 116.206 14.8823C116.775 15.1773 117.222 15.5922 117.549 16.1269C117.886 16.6616 118.054 17.2932 118.054 18.0215C118.054 18.713 117.891 19.3307 117.563 19.8747C117.237 20.4186 116.784 20.8473 116.206 21.1608C115.639 21.4651 114.975 21.6172 114.215 21.6172ZM114.243 20.0821C114.629 20.0821 114.961 19.9899 115.239 19.8055C115.528 19.6119 115.755 19.3583 115.918 19.0449C116.082 18.7222 116.163 18.3719 116.163 17.9939C116.163 17.5605 116.072 17.1918 115.889 16.8875C115.716 16.5833 115.485 16.3528 115.196 16.1961C114.907 16.0393 114.59 15.961 114.243 15.961C113.868 15.961 113.536 16.0485 113.248 16.2237C112.969 16.3988 112.748 16.6432 112.584 16.9567C112.43 17.2609 112.353 17.6158 112.353 18.0215C112.353 18.4272 112.435 18.7867 112.598 19.1002C112.771 19.4136 113.002 19.658 113.291 19.8332C113.58 19.9991 113.897 20.0821 114.243 20.0821ZM119.63 21.4512V11.7707H121.477V21.4512H119.63ZM126.165 21.6172C125.549 21.6172 125.024 21.4927 124.591 21.2438C124.158 20.9856 123.826 20.6353 123.596 20.1928C123.365 19.741 123.249 19.2293 123.249 18.6577V14.5919H125.082V18.3949C125.082 18.902 125.217 19.3168 125.486 19.6396C125.765 19.9622 126.169 20.1236 126.699 20.1236C127.247 20.1236 127.656 19.9668 127.926 19.6534C128.194 19.3399 128.33 18.9205 128.33 18.3949V14.5919H130.177V21.4512H128.33V20.6491C128.089 20.9625 127.771 21.2023 127.377 21.3682C126.992 21.5342 126.588 21.6172 126.165 21.6172ZM134.861 21.4512C134.091 21.4512 133.509 21.2714 133.114 20.9119C132.729 20.5523 132.537 20.013 132.537 19.2938V16.0716H131.613V14.5919H132.537V12.9185H134.385V14.5919H136.016V16.0716H134.385V19.3077C134.385 19.5658 134.457 19.741 134.601 19.8332C134.745 19.9253 134.933 19.9715 135.164 19.9715H136.016V21.4512H134.861ZM138.68 13.7068C138.353 13.7068 138.069 13.5962 137.829 13.3749C137.598 13.1444 137.482 12.8724 137.482 12.559C137.482 12.2362 137.598 11.9643 137.829 11.743C138.069 11.5218 138.353 11.4111 138.68 11.4111C139.017 11.4111 139.301 11.5218 139.532 11.743C139.763 11.9643 139.878 12.2362 139.878 12.559C139.878 12.8724 139.763 13.1444 139.532 13.3749C139.301 13.5962 139.017 13.7068 138.68 13.7068ZM137.757 21.4512V14.5919H139.604V21.4512H137.757ZM145.025 21.6172C144.303 21.6172 143.658 21.4696 143.091 21.1746C142.532 20.8704 142.095 20.4463 141.777 19.9023C141.46 19.3583 141.301 18.7314 141.301 18.0215C141.301 17.2748 141.469 16.6339 141.806 16.0993C142.153 15.5553 142.609 15.1404 143.177 14.8546C143.755 14.5688 144.39 14.4259 145.083 14.4259C145.804 14.4259 146.448 14.578 147.017 14.8823C147.584 15.1773 148.032 15.5922 148.359 16.1269C148.696 16.6616 148.864 17.2932 148.864 18.0215C148.864 18.713 148.7 19.3307 148.373 19.8747C148.046 20.4186 147.594 20.8473 147.017 21.1608C146.448 21.4651 145.784 21.6172 145.025 21.6172ZM145.054 20.0821C145.438 20.0821 145.77 19.9899 146.05 19.8055C146.338 19.6119 146.564 19.3583 146.728 19.0449C146.891 18.7222 146.973 18.3719 146.973 17.9939C146.973 17.5605 146.881 17.1918 146.699 16.8875C146.526 16.5833 146.295 16.3528 146.006 16.1961C145.718 16.0393 145.4 15.961 145.054 15.961C144.678 15.961 144.346 16.0485 144.058 16.2237C143.778 16.3988 143.557 16.6432 143.394 16.9567C143.24 17.2609 143.163 17.6158 143.163 18.0215C143.163 18.4272 143.244 18.7867 143.408 19.1002C143.582 19.4136 143.812 19.658 144.101 19.8332C144.39 19.9991 144.707 20.0821 145.054 20.0821ZM150.51 21.4512V14.5919H152.343V15.394C152.593 15.0712 152.925 14.8316 153.339 14.6749C153.762 14.5089 154.186 14.4259 154.609 14.4259C155.436 14.4259 156.114 14.684 156.644 15.2004C157.173 15.7074 157.438 16.445 157.438 17.4131V21.4512H155.605V17.6482C155.605 17.1318 155.465 16.7169 155.186 16.4035C154.916 16.0808 154.518 15.9195 153.988 15.9195C153.459 15.9195 153.05 16.0808 152.761 16.4035C152.483 16.7169 152.343 17.1318 152.343 17.6482V21.4512H150.51Z" fill="white"/>
</g>
<defs>
<clipPath id="clip0_56_3309">
<rect width="258" height="34.5733" fill="white"/>
</clipPath>
</defs>
</svg>
