<svg width="26" height="52" viewBox="0 0 26 52" fill="none" xmlns="http://www.w3.org/2000/svg">
<path d="M22.8157 43.1542C22.3442 43.2684 22.0184 43.6349 22.0184 44.0616V47.1084C22.0184 48.2682 20.8537 49.2117 19.4324 49.2117H13.3107C12.7145 49.2117 12.2292 49.6323 12.2292 50.1491V52H0.304672V34.4106C0.304672 29.6091 5.03981 25.709 10.8565 25.709H12.0836C17.9003 25.709 22.6354 29.6151 22.6354 34.4106V37.9621C22.6354 38.1364 22.6909 38.3106 22.8018 38.4609L25.6997 42.4631L22.8226 43.1422L22.8157 43.1542Z" fill="#3AB33A"/>
<path d="M17.873 19.5953V17.5701C17.873 17.0654 18.1088 16.6147 18.5247 16.3382C20.5214 14.9801 21.6653 12.985 21.6653 10.8637C21.6653 8.89861 20.7086 7.06575 18.9754 5.70763C17.1243 4.25937 14.5869 3.56228 12.0217 3.79064C7.98678 4.15721 4.76993 6.82537 4.37476 10.1426C4.09051 12.4982 5.24136 14.8118 7.45295 16.3202C7.87585 16.6086 8.12543 17.0293 8.12543 17.468V19.5953C8.12543 21.1698 9.65759 22.4618 11.5433 22.4618H14.4621C16.3478 22.4618 17.88 21.1758 17.88 19.5953H17.873ZM8.79792 14.8479C7.1479 13.7181 6.32289 12.0776 6.53088 10.3409C6.81512 7.93711 9.27629 5.92998 12.2436 5.65956C14.1986 5.47927 16.119 6.0081 17.5195 7.10181C18.7951 8.09936 19.4953 9.43345 19.4953 10.8637C19.4953 12.4021 18.6564 13.8624 17.1867 14.8599C16.2577 15.4909 15.7169 16.4704 15.71 17.5401L14.0808 17.5161V14.4453L17.2352 11.9213L15.7654 10.5392L12.9992 12.7566L10.233 10.5392L8.76326 11.9213L11.9177 14.4453V17.486L10.2954 17.462C10.2954 16.4464 9.74772 15.4909 8.79792 14.8419V14.8479ZM10.2885 19.3489L15.703 19.421V19.6013C15.703 20.1422 15.1415 20.5868 14.4551 20.5868H11.5364C10.85 20.5868 10.2885 20.1482 10.2885 19.6013V19.3489Z" fill="#3AB33A"/>
<path d="M11.9183 0H14.0883V2.8184H11.9183V0Z" fill="#3AB33A"/>
<path d="M22.7488 10.2949H26.0003V12.1698H22.7488V10.2949Z" fill="#3AB33A"/>
<path d="M0 10.293H3.25151V12.1679H0V10.293Z" fill="#3AB33A"/>
<path d="M3.04697 3.95893L4.5722 2.63086L6.8739 4.61395L5.34868 5.94203L3.04697 3.95893Z" fill="#3AB33A"/>
<path d="M19.1275 4.61395L21.4292 2.63086L22.9545 3.95893L20.6528 5.94203L19.1275 4.61395Z" fill="#3AB33A"/>
</svg>
