<svg width="49" height="52" viewBox="0 0 49 52" fill="none" xmlns="http://www.w3.org/2000/svg">
<path fill-rule="evenodd" clip-rule="evenodd" d="M44.5315 4.59354L42.9445 1.8677C42.7188 1.48551 42.231 1.35571 41.8452 1.57925L39.0934 3.1513C38.9842 3.2162 38.8532 3.2162 38.744 3.1513C38.6348 3.0864 38.562 2.98544 38.5547 2.86285C38.5402 2.59603 38.4674 2.32922 38.2999 2.04077C37.7394 1.08168 36.4946 0.749965 35.5263 1.30523C34.5581 1.86049 34.2233 3.09361 34.7838 4.0527C34.9512 4.34115 35.1551 4.52864 35.3735 4.68007C35.4827 4.75218 35.5409 4.86035 35.5336 4.98294C35.5263 5.10553 35.4608 5.2137 35.3516 5.2786L32.5999 6.85065C32.214 7.07419 32.083 7.55734 32.3087 7.93954L33.8957 10.6654C33.9612 10.7735 34.0704 10.8384 34.1941 10.8457C34.3179 10.8457 34.4344 10.7952 34.4999 10.687C34.6455 10.4635 34.842 10.2688 35.1332 10.1029C36.1014 9.54764 37.3463 9.87935 37.9068 10.8384C38.4674 11.7975 38.1325 13.0306 37.1643 13.5859C36.8731 13.7518 36.6037 13.8239 36.3344 13.8383C36.2106 13.8383 36.1014 13.9104 36.0432 14.0258C35.985 14.134 35.985 14.2638 36.0432 14.3719L37.6302 17.0978C37.8559 17.48 38.3436 17.6098 38.7295 17.3862L41.4812 15.8142C41.5904 15.7493 41.7215 15.7493 41.8307 15.8142C41.9398 15.8719 42.0126 15.98 42.0199 16.1026C42.0345 16.3694 42.1073 16.6362 42.2747 16.9247C42.8353 17.8838 44.0801 18.2155 45.0483 17.6602C46.0165 17.105 46.3514 15.8719 45.7909 14.9128C45.6234 14.6243 45.4196 14.4368 45.2012 14.2854C45.092 14.2133 45.0338 14.1051 45.041 13.9825C45.0483 13.8599 45.1138 13.7518 45.223 13.6869L47.9748 12.1148C48.3606 11.8913 48.4917 11.4081 48.266 11.0259L46.679 8.3001C46.6135 8.19193 46.5043 8.12703 46.3805 8.11982C46.2568 8.11982 46.1403 8.17029 46.0748 8.27846C45.9292 8.50201 45.7326 8.69671 45.4414 8.86257C44.4732 9.41783 43.2284 9.08612 42.6678 8.12703C42.1073 7.16794 42.4422 5.93482 43.4104 5.37956C43.7016 5.2137 43.9709 5.14159 44.2403 5.12717C44.364 5.12717 44.4732 5.04784 44.5315 4.93967C44.5897 4.8243 44.5897 4.70171 44.5315 4.59354Z" fill="#3AB33A"/>
<path fill-rule="evenodd" clip-rule="evenodd" d="M22.9468 9.91541C22.9468 9.58369 23.2162 9.31688 23.5511 9.31688C23.8859 9.31688 24.1553 9.58369 24.1553 9.91541C24.1553 10.2471 23.8859 10.5211 23.5511 10.5211C23.2162 10.5211 22.9468 10.2543 22.9468 9.92262V9.91541Z" fill="#3AB33A"/>
<path fill-rule="evenodd" clip-rule="evenodd" d="M22.3353 1.75953C22.0951 2.00472 21.702 2.01193 21.4545 1.77396C21.207 1.53599 21.1997 1.14658 21.4399 0.901401C21.7165 0.620164 22.0441 0.389405 22.4154 0.23797C22.7721 0.0865345 23.1652 0 23.5729 0C24.3882 0 25.1308 0.324504 25.6622 0.858133C26.1936 1.39176 26.5285 2.12009 26.5285 2.92775C26.5285 3.56234 26.3247 4.15365 25.9752 4.63681C25.6185 5.12717 25.1089 5.50936 24.5193 5.70406C24.4174 5.73291 24.3373 5.79781 24.2863 5.86992C24.2354 5.94203 24.2062 6.03578 24.2062 6.14395V6.8867C24.2062 7.22563 23.9296 7.50686 23.5802 7.50686C23.2307 7.50686 22.9541 7.23284 22.9541 6.8867V6.14395C22.9541 5.77618 23.0706 5.43725 23.2744 5.1488C23.4783 4.86756 23.7695 4.65123 24.1189 4.52864C24.461 4.41326 24.7595 4.19692 24.9633 3.90847C25.1672 3.63445 25.2837 3.28831 25.2837 2.92054C25.2837 2.45181 25.0944 2.02635 24.7813 1.72348C24.4683 1.4134 24.0388 1.2259 23.5729 1.2259C23.3327 1.2259 23.107 1.27638 22.9032 1.35571C22.692 1.44224 22.5028 1.57925 22.3426 1.74511L22.3353 1.75953Z" fill="#3AB33A"/>
<path fill-rule="evenodd" clip-rule="evenodd" d="M3.39322 7.73041L4.79822 5.32187C4.99477 4.98294 5.43156 4.86756 5.76643 5.06227L8.19789 6.45403C8.29253 6.51172 8.409 6.51172 8.50364 6.45403C8.59828 6.39634 8.6638 6.3098 8.67108 6.19443C8.68564 5.95646 8.74387 5.71849 8.89675 5.46609C9.39178 4.61517 10.491 4.32672 11.35 4.81708C12.2091 5.30745 12.5003 6.39634 12.0052 7.24726C11.8596 7.49965 11.6776 7.67272 11.4811 7.80252C11.3864 7.86021 11.3355 7.96117 11.3428 8.06934C11.3428 8.17751 11.401 8.27125 11.5029 8.32894L13.9344 9.7207C14.2765 9.91541 14.393 10.3481 14.1965 10.6798L12.7914 13.0883C12.7332 13.1821 12.6386 13.2398 12.5294 13.247C12.4202 13.247 12.3183 13.2037 12.26 13.11C12.129 12.9153 11.9543 12.735 11.6995 12.5908C10.8405 12.1004 9.74121 12.3889 9.24618 13.2398C8.75115 14.0907 9.04235 15.1796 9.90136 15.6699C10.1562 15.8142 10.3964 15.8791 10.6366 15.8935C10.7458 15.8935 10.8405 15.9584 10.8987 16.0594C10.9497 16.1603 10.9497 16.2685 10.8987 16.3622L9.4937 18.7708C9.29714 19.1097 8.86035 19.2251 8.52548 19.0304L6.09402 17.6386C5.99939 17.5809 5.88291 17.5809 5.78827 17.6386C5.68635 17.6891 5.62812 17.7828 5.62084 17.8982C5.60628 18.1362 5.54804 18.3742 5.39516 18.6265C4.90014 19.4775 3.80088 19.7659 2.94187 19.2756C2.08285 18.7852 1.79166 17.6963 2.28668 16.8454C2.43228 16.593 2.61428 16.4199 2.81083 16.2901C2.90547 16.2324 2.95643 16.1315 2.94915 16.0233C2.94915 15.9151 2.89091 15.8214 2.78899 15.7637L0.357535 14.3719C0.015384 14.1772 -0.101093 13.7446 0.0954619 13.4128L1.50046 11.0043C1.5587 10.9106 1.65334 10.8529 1.76254 10.8457C1.87174 10.8457 1.97365 10.8889 2.03189 10.9827C2.16293 11.1774 2.33764 11.3576 2.59244 11.5019C3.45145 11.9922 4.5507 11.7038 5.04573 10.8529C5.54076 10.0019 5.24957 8.91305 4.39055 8.42269C4.13576 8.27846 3.89552 8.21356 3.65529 8.19914C3.54609 8.19914 3.45145 8.13424 3.39322 8.03328C3.34226 7.93233 3.34226 7.82416 3.39322 7.73041Z" fill="#3AB33A"/>
<path fill-rule="evenodd" clip-rule="evenodd" d="M32.1121 44.9402L32.9129 44.9619C36.3635 45.1133 39.0934 42.7841 38.5329 40.0006L36.6911 30.8063C36.1742 28.2102 33.6773 26.3786 30.7435 26.4291L27.8389 26.4795C27.8316 26.7175 27.7879 26.9627 27.7151 27.2151C27.6423 27.4675 27.5331 27.7271 27.3948 27.9939C25.968 30.6116 24.5702 33.1788 23.2599 35.6017C22.4518 37.1017 21.6365 38.6088 20.8138 40.1376C21.2361 39.914 21.7529 39.777 22.3644 39.741L31.1803 39.2434L30.5324 34.8734C30.5106 34.722 30.6125 34.5849 30.7653 34.5633C30.9182 34.5417 31.0565 34.6426 31.0784 34.7941L31.77 39.4597C31.77 39.4597 31.77 39.4741 31.77 39.4813C31.7772 39.6328 31.6608 39.7626 31.5079 39.7698L22.3936 40.289C21.2361 40.3539 20.5008 40.8587 20.1732 41.5005C20.0276 41.7745 19.9621 42.0846 19.9621 42.3875C19.9621 42.6903 20.0422 43.0004 20.1878 43.2744C20.5372 43.9379 21.2798 44.4571 22.4081 44.5076L32.1048 44.9402H32.1121Z" fill="#3AB33A"/>
<path fill-rule="evenodd" clip-rule="evenodd" d="M27.1982 24.5686C28.7634 23.4508 29.7753 21.6408 29.7753 19.5856C29.7753 16.1964 27.0017 13.4489 23.5802 13.4489C20.1587 13.4489 17.3851 16.1964 17.3851 19.5856C17.3851 22.3475 19.2269 24.684 21.7602 25.4483L22.0296 25.0734C22.8376 23.8475 24.199 23.1047 25.6768 23.5446C26.2955 23.7249 26.8197 24.0926 27.191 24.5686H27.1982Z" fill="#3AB33A"/>
<path fill-rule="evenodd" clip-rule="evenodd" d="M27.2929 26.4435C27.2929 26.6454 27.2565 26.8545 27.191 27.0781C27.1254 27.2944 27.0381 27.518 26.9143 27.7487C25.5748 30.2005 24.2135 32.7028 22.7794 35.3565C21.3817 37.9381 20.0131 40.4837 18.6809 42.9788C18.3605 43.5845 17.9165 44.0965 17.4069 44.4859C16.8828 44.8898 16.2712 45.171 15.6233 45.308C15.4705 45.3441 15.3831 45.4883 15.4122 45.6325C15.4486 45.7839 15.5942 45.8705 15.7398 45.8416C16.4678 45.683 17.1448 45.3657 17.7418 44.9186C18.3169 44.4787 18.8119 43.909 19.1686 43.2312L19.4452 42.712C19.4816 42.9932 19.5763 43.2744 19.7146 43.534C20.1441 44.3561 21.0541 44.9979 22.4008 45.0628L32.032 45.4883L31.9374 51.4592H15.2958L15.3977 45.6974C14.626 45.8128 13.8034 45.7984 12.9881 45.5748C10.7459 44.9474 9.28991 42.9067 9.44279 40.5991L10.0252 31.7149C10.2072 28.9386 12.7187 26.768 15.8199 26.7103L20.9886 26.6093L14.5678 36.4238C14.4877 36.5536 14.5241 36.7195 14.6478 36.7988C14.7789 36.8781 14.9463 36.842 15.0264 36.7195L21.6583 26.5805L22.51 25.3907C24.1917 22.8235 27.3074 24.1071 27.3074 26.4435H27.2929Z" fill="#3AB33A"/>
</svg>
