<svg width="550" height="131" viewBox="0 0 550 131" fill="none" xmlns="http://www.w3.org/2000/svg">
<rect y="13.4648" width="103.333" height="103.333" rx="51.6667" fill="#639CF1"/>
<path d="M8.43866 70.6318L4.34266 59.4318H6.53466L9.70266 68.5358L12.8867 59.4318H15.0467L10.9507 70.6318H8.43866ZM18.8655 70.8238C18.0335 70.8238 17.3135 70.6425 16.7055 70.2798C16.1082 69.9172 15.6442 69.4212 15.3135 68.7918C14.9829 68.1625 14.8175 67.4532 14.8175 66.6638C14.8175 65.8212 14.9882 65.0905 15.3295 64.4718C15.6709 63.8532 16.1455 63.3732 16.7535 63.0318C17.3615 62.6798 18.0655 62.5038 18.8655 62.5038C19.6549 62.5038 20.3429 62.6745 20.9295 63.0158C21.5269 63.3572 21.9909 63.8265 22.3215 64.4238C22.6629 65.0212 22.8335 65.7092 22.8335 66.4878C22.8335 66.6265 22.8282 66.7652 22.8175 66.9038C22.8069 67.0318 22.7909 67.1545 22.7695 67.2718H16.8815C16.9135 67.6452 17.0095 67.9758 17.1695 68.2638C17.3402 68.5412 17.5642 68.7598 17.8415 68.9198C18.1295 69.0692 18.4549 69.1438 18.8175 69.1438C19.1909 69.1438 19.5109 69.0638 19.7775 68.9038C20.0549 68.7438 20.2735 68.4985 20.4335 68.1678H22.6255C22.4762 68.6372 22.2362 69.0745 21.9055 69.4798C21.5749 69.8852 21.1535 70.2105 20.6415 70.4558C20.1402 70.7012 19.5482 70.8238 18.8655 70.8238ZM16.8975 65.9118H20.7215C20.7109 65.3785 20.5135 64.9572 20.1295 64.6478C19.7562 64.3385 19.3135 64.1838 18.8015 64.1838C18.3642 64.1838 17.9589 64.3225 17.5855 64.5998C17.2122 64.8665 16.9829 65.3038 16.8975 65.9118ZM24.5573 70.6318V62.6958H26.5893V63.8798C26.8666 63.4318 27.2186 63.0905 27.6453 62.8558C28.0719 62.6212 28.5466 62.5038 29.0693 62.5038V64.6478H28.5253C27.8746 64.6478 27.3893 64.8025 27.0693 65.1118C26.7493 65.4212 26.5893 65.9385 26.5893 66.6638V70.6318H24.5573ZM31.77 61.6718C31.4074 61.6718 31.0927 61.5438 30.826 61.2878C30.57 61.0212 30.442 60.7065 30.442 60.3438C30.442 59.9705 30.57 59.6558 30.826 59.3998C31.0927 59.1438 31.4074 59.0158 31.77 59.0158C32.1434 59.0158 32.458 59.1438 32.714 59.3998C32.97 59.6558 33.098 59.9705 33.098 60.3438C33.098 60.7065 32.97 61.0212 32.714 61.2878C32.458 61.5438 32.1434 61.6718 31.77 61.6718ZM30.746 70.6318V62.6958H32.794V70.6318H30.746ZM35.235 70.6318V59.4318H39.379C40.1577 59.4318 40.8404 59.5652 41.427 59.8318C42.0244 60.0878 42.4937 60.4665 42.835 60.9678C43.1764 61.4692 43.347 62.0772 43.347 62.7918C43.347 63.5065 43.1764 64.1198 42.835 64.6318C42.4937 65.1332 42.0244 65.5172 41.427 65.7838C40.8404 66.0398 40.1577 66.1678 39.379 66.1678H37.283V70.6318H35.235ZM37.283 64.4238H39.331C40.0457 64.4238 40.547 64.2745 40.835 63.9758C41.123 63.6665 41.267 63.2718 41.267 62.7918C41.267 62.3225 41.123 61.9385 40.835 61.6398C40.547 61.3305 40.0457 61.1758 39.331 61.1758H37.283V64.4238ZM44.9929 70.6318V62.6958H47.0249V63.8798C47.3022 63.4318 47.6542 63.0905 48.0809 62.8558C48.5076 62.6212 48.9822 62.5038 49.5049 62.5038V64.6478H48.9609C48.3102 64.6478 47.8249 64.8025 47.5049 65.1118C47.1849 65.4212 47.0249 65.9385 47.0249 66.6638V70.6318H44.9929ZM52.2057 61.6718C51.843 61.6718 51.5283 61.5438 51.2617 61.2878C51.0057 61.0212 50.8777 60.7065 50.8777 60.3438C50.8777 59.9705 51.0057 59.6558 51.2617 59.3998C51.5283 59.1438 51.843 59.0158 52.2057 59.0158C52.579 59.0158 52.8937 59.1438 53.1497 59.3998C53.4057 59.6558 53.5337 59.9705 53.5337 60.3438C53.5337 60.7065 53.4057 61.0212 53.1497 61.2878C52.8937 61.5438 52.579 61.6718 52.2057 61.6718ZM51.1817 70.6318V62.6958H53.2297V70.6318H51.1817ZM54.6467 70.6318L57.2707 66.6478L54.6147 62.6958H56.9187L58.5507 65.1438L60.0387 62.6958H62.2147L59.5747 66.6478L62.2467 70.6318H59.9587L58.2947 68.1678L56.8227 70.6318H54.6467ZM67.3869 70.6318L71.4829 59.4318H73.7869L77.8829 70.6318H75.7069L74.8269 68.0878H70.4269L69.5309 70.6318H67.3869ZM71.0029 66.4398H74.2509L72.6189 61.7838L71.0029 66.4398ZM79.5523 74.1518V62.6958H81.5843V63.7998C81.8936 63.3732 82.2776 63.0532 82.7363 62.8398C83.2056 62.6158 83.7123 62.5038 84.2563 62.5038C85.0243 62.5038 85.6803 62.6905 86.2243 63.0638C86.7789 63.4372 87.2003 63.9385 87.4883 64.5678C87.7869 65.1865 87.9363 65.8745 87.9363 66.6318C87.9363 67.3892 87.7869 68.0878 87.4883 68.7278C87.1896 69.3678 86.7629 69.8798 86.2083 70.2638C85.6643 70.6372 85.0136 70.8238 84.2563 70.8238C83.5843 70.8238 83.0243 70.6852 82.5763 70.4078C82.1389 70.1305 81.8136 69.8425 81.6003 69.5438V74.1518H79.5523ZM83.7123 69.0318C84.139 69.0318 84.5123 68.9252 84.8323 68.7118C85.1523 68.4878 85.403 68.1945 85.5843 67.8318C85.7656 67.4692 85.8563 67.0692 85.8563 66.6318C85.8563 66.1305 85.7549 65.7092 85.5523 65.3678C85.3603 65.0158 85.0989 64.7492 84.7683 64.5678C84.4483 64.3865 84.0963 64.2958 83.7123 64.2958C83.3069 64.2958 82.9443 64.3972 82.6243 64.5998C82.3043 64.8025 82.0483 65.0852 81.8563 65.4478C81.6749 65.7998 81.5843 66.2052 81.5843 66.6638C81.5843 67.1012 81.6749 67.5012 81.8563 67.8638C82.0376 68.2265 82.2883 68.5145 82.6083 68.7278C82.9283 68.9305 83.2963 69.0318 83.7123 69.0318ZM89.7548 74.1518V62.6958H91.7868V63.7998C92.0961 63.3732 92.4801 63.0532 92.9388 62.8398C93.4081 62.6158 93.9148 62.5038 94.4588 62.5038C95.2268 62.5038 95.8828 62.6905 96.4268 63.0638C96.9814 63.4372 97.4028 63.9385 97.6908 64.5678C97.9894 65.1865 98.1388 65.8745 98.1388 66.6318C98.1388 67.3892 97.9894 68.0878 97.6908 68.7278C97.3921 69.3678 96.9654 69.8798 96.4108 70.2638C95.8668 70.6372 95.2161 70.8238 94.4588 70.8238C93.7868 70.8238 93.2268 70.6852 92.7788 70.4078C92.3414 70.1305 92.0161 69.8425 91.8028 69.5438V74.1518H89.7548ZM93.9148 69.0318C94.3414 69.0318 94.7148 68.9252 95.0348 68.7118C95.3548 68.4878 95.6054 68.1945 95.7868 67.8318C95.9681 67.4692 96.0588 67.0692 96.0588 66.6318C96.0588 66.1305 95.9574 65.7092 95.7548 65.3678C95.5628 65.0158 95.3014 64.7492 94.9708 64.5678C94.6508 64.3865 94.2988 64.2958 93.9148 64.2958C93.5094 64.2958 93.1468 64.3972 92.8268 64.5998C92.5068 64.8025 92.2508 65.0852 92.0588 65.4478C91.8774 65.7998 91.7868 66.2052 91.7868 66.6638C91.7868 67.1012 91.8774 67.5012 92.0588 67.8638C92.2401 68.2265 92.4908 68.5145 92.8108 68.7278C93.1308 68.9305 93.4988 69.0318 93.9148 69.0318Z" fill="white"/>
<path d="M123.333 63.1318C122.229 63.1318 121.333 64.0273 121.333 65.1318C121.333 66.2364 122.229 67.1318 123.333 67.1318V65.1318V63.1318ZM204.748 66.546C205.529 65.765 205.529 64.4987 204.748 63.7176L192.02 50.9897C191.239 50.2087 189.972 50.2087 189.191 50.9897C188.41 51.7707 188.41 53.0371 189.191 53.8181L200.505 65.1318L189.191 76.4455C188.41 77.2266 188.41 78.4929 189.191 79.274C189.972 80.055 191.239 80.055 192.02 79.274L204.748 66.546ZM123.333 65.1318V67.1318H203.333V65.1318V63.1318H123.333V65.1318Z" fill="#8A8A8A"/>
<rect x="223.333" y="13.4648" width="103.333" height="103.333" rx="51.6667" fill="#347FF0"/>
<path d="M244.524 70.6318V59.4318H248.668C249.447 59.4318 250.129 59.5652 250.716 59.8318C251.313 60.0878 251.783 60.4665 252.124 60.9678C252.465 61.4692 252.636 62.0772 252.636 62.7918C252.636 63.5065 252.465 64.1198 252.124 64.6318C251.783 65.1332 251.313 65.5172 250.716 65.7838C250.129 66.0398 249.447 66.1678 248.668 66.1678H246.572V70.6318H244.524ZM246.572 64.4238H248.62C249.335 64.4238 249.836 64.2745 250.124 63.9758C250.412 63.6665 250.556 63.2718 250.556 62.7918C250.556 62.3225 250.412 61.9385 250.124 61.6398C249.836 61.3305 249.335 61.1758 248.62 61.1758H246.572V64.4238ZM256.23 70.8238C255.76 70.8238 255.323 70.7278 254.918 70.5358C254.512 70.3438 254.182 70.0718 253.926 69.7198C253.68 69.3572 253.558 68.9305 253.558 68.4398C253.558 67.8532 253.702 67.3732 253.99 66.9998C254.278 66.6265 254.672 66.3492 255.174 66.1678C255.686 65.9865 256.256 65.8958 256.886 65.8958H258.774C258.774 65.5332 258.715 65.2292 258.598 64.9838C258.491 64.7385 258.326 64.5518 258.102 64.4238C257.888 64.2852 257.622 64.2158 257.302 64.2158C256.928 64.2158 256.592 64.3012 256.294 64.4718C256.006 64.6318 255.83 64.9038 255.766 65.2878H253.718C253.771 64.7118 253.968 64.2158 254.31 63.7998C254.651 63.3838 255.088 63.0638 255.622 62.8398C256.155 62.6158 256.726 62.5038 257.334 62.5038C258.08 62.5038 258.71 62.6425 259.222 62.9198C259.744 63.1972 260.144 63.5918 260.422 64.1038C260.699 64.6052 260.838 65.2025 260.838 65.8958V68.3118C260.859 68.5465 260.944 68.7065 261.094 68.7918C261.243 68.8772 261.44 68.9198 261.686 68.9198V70.6318C261.184 70.6318 260.763 70.5838 260.422 70.4878C260.091 70.3918 259.819 70.2532 259.606 70.0718C259.392 69.8798 259.211 69.6398 259.062 69.3518C258.816 69.7678 258.432 70.1198 257.91 70.4078C257.398 70.6852 256.838 70.8238 256.23 70.8238ZM256.822 69.1758C257.174 69.1758 257.494 69.0958 257.782 68.9358C258.08 68.7758 258.32 68.5518 258.502 68.2638C258.683 67.9758 258.774 67.6452 258.774 67.2718V67.2078H257.014C256.779 67.2078 256.555 67.2452 256.342 67.3198C256.128 67.3838 255.958 67.4905 255.83 67.6398C255.702 67.7785 255.638 67.9705 255.638 68.2158C255.638 68.5465 255.75 68.7918 255.974 68.9518C256.208 69.1012 256.491 69.1758 256.822 69.1758ZM266.042 70.6318C265.189 70.6318 264.543 70.4238 264.106 70.0078C263.679 69.5918 263.466 68.9678 263.466 68.1358V64.4078H262.442V62.6958H263.466V60.7598H265.514V62.6958H267.322V64.4078H265.514V68.1518C265.514 68.4505 265.594 68.6532 265.754 68.7598C265.914 68.8665 266.122 68.9198 266.378 68.9198H267.322V70.6318H266.042ZM270.275 61.6718C269.913 61.6718 269.598 61.5438 269.331 61.2878C269.075 61.0212 268.947 60.7065 268.947 60.3438C268.947 59.9705 269.075 59.6558 269.331 59.3998C269.598 59.1438 269.913 59.0158 270.275 59.0158C270.649 59.0158 270.963 59.1438 271.219 59.3998C271.475 59.6558 271.603 59.9705 271.603 60.3438C271.603 60.7065 271.475 61.0212 271.219 61.2878C270.963 61.5438 270.649 61.6718 270.275 61.6718ZM269.251 70.6318V62.6958H271.299V70.6318H269.251ZM277.228 70.8238C276.396 70.8238 275.676 70.6425 275.068 70.2798C274.471 69.9172 274.007 69.4212 273.676 68.7918C273.346 68.1625 273.18 67.4532 273.18 66.6638C273.18 65.8212 273.351 65.0905 273.692 64.4718C274.034 63.8532 274.508 63.3732 275.116 63.0318C275.724 62.6798 276.428 62.5038 277.228 62.5038C278.018 62.5038 278.706 62.6745 279.292 63.0158C279.89 63.3572 280.354 63.8265 280.684 64.4238C281.026 65.0212 281.196 65.7092 281.196 66.4878C281.196 66.6265 281.191 66.7652 281.18 66.9038C281.17 67.0318 281.154 67.1545 281.132 67.2718H275.244C275.276 67.6452 275.372 67.9758 275.532 68.2638C275.703 68.5412 275.927 68.7598 276.204 68.9198C276.492 69.0692 276.818 69.1438 277.18 69.1438C277.554 69.1438 277.874 69.0638 278.14 68.9038C278.418 68.7438 278.636 68.4985 278.796 68.1678H280.988C280.839 68.6372 280.599 69.0745 280.268 69.4798C279.938 69.8852 279.516 70.2105 279.004 70.4558C278.503 70.7012 277.911 70.8238 277.228 70.8238ZM275.26 65.9118H279.084C279.074 65.3785 278.876 64.9572 278.492 64.6478C278.119 64.3385 277.676 64.1838 277.164 64.1838C276.727 64.1838 276.322 64.3225 275.948 64.5998C275.575 64.8665 275.346 65.3038 275.26 65.9118ZM282.92 70.6318V62.6958H284.952V63.6238C285.229 63.2505 285.597 62.9732 286.056 62.7918C286.525 62.5998 286.995 62.5038 287.464 62.5038C288.381 62.5038 289.133 62.8025 289.72 63.3998C290.307 63.9865 290.6 64.8398 290.6 65.9598V70.6318H288.568V66.2318C288.568 65.6345 288.413 65.1545 288.104 64.7918C287.805 64.4185 287.363 64.2318 286.776 64.2318C286.189 64.2318 285.736 64.4185 285.416 64.7918C285.107 65.1545 284.952 65.6345 284.952 66.2318V70.6318H282.92ZM295.664 70.6318C294.811 70.6318 294.166 70.4238 293.728 70.0078C293.302 69.5918 293.088 68.9678 293.088 68.1358V64.4078H292.064V62.6958H293.088V60.7598H295.136V62.6958H296.944V64.4078H295.136V68.1518C295.136 68.4505 295.216 68.6532 295.376 68.7598C295.536 68.8665 295.744 68.9198 296 68.9198H296.944V70.6318H295.664ZM302.042 70.8238C301.444 70.8238 300.884 70.7172 300.362 70.5038C299.839 70.2798 299.407 69.9652 299.066 69.5598C298.735 69.1545 298.554 68.6798 298.522 68.1358H300.57C300.623 68.4772 300.788 68.7438 301.066 68.9358C301.354 69.1278 301.674 69.2238 302.026 69.2238C302.324 69.2238 302.602 69.1598 302.858 69.0318C303.124 68.8932 303.258 68.6798 303.258 68.3918C303.258 68.1678 303.162 67.9918 302.97 67.8638C302.778 67.7358 302.554 67.6345 302.298 67.5598C302.042 67.4852 301.807 67.4212 301.594 67.3678C301.06 67.2398 300.575 67.0905 300.138 66.9198C299.7 66.7385 299.354 66.4932 299.098 66.1838C298.842 65.8638 298.714 65.4425 298.714 64.9198C298.714 64.4078 298.858 63.9705 299.146 63.6078C299.444 63.2452 299.834 62.9732 300.314 62.7918C300.804 62.5998 301.332 62.5038 301.898 62.5038C302.783 62.5038 303.53 62.7278 304.138 63.1758C304.746 63.6238 305.076 64.2852 305.13 65.1598H303.194C303.162 64.8185 303.018 64.5625 302.762 64.3918C302.516 64.2105 302.207 64.1198 301.834 64.1198C301.535 64.1198 301.268 64.1732 301.034 64.2798C300.799 64.3865 300.682 64.5892 300.682 64.8878C300.682 65.1012 300.778 65.2772 300.97 65.4158C301.162 65.5438 301.391 65.6505 301.658 65.7358C301.924 65.8105 302.159 65.8745 302.362 65.9278C302.916 66.0665 303.402 66.2265 303.818 66.4078C304.244 66.5892 304.58 66.8345 304.826 67.1438C305.071 67.4532 305.199 67.8692 305.21 68.3918C305.21 68.9145 305.06 69.3572 304.762 69.7198C304.474 70.0825 304.09 70.3598 303.61 70.5518C303.13 70.7332 302.607 70.8238 302.042 70.8238Z" fill="white"/>
<path d="M346.667 63.1318C345.562 63.1318 344.667 64.0273 344.667 65.1318C344.667 66.2364 345.562 67.1318 346.667 67.1318V65.1318V63.1318ZM428.081 66.546C428.862 65.765 428.862 64.4987 428.081 63.7176L415.353 50.9897C414.572 50.2087 413.306 50.2087 412.525 50.9897C411.744 51.7707 411.744 53.0371 412.525 53.8181L423.838 65.1318L412.525 76.4455C411.744 77.2266 411.744 78.4929 412.525 79.274C413.306 80.055 414.572 80.055 415.353 79.274L428.081 66.546ZM346.667 65.1318V67.1318H426.667V65.1318V63.1318H346.667V65.1318Z" fill="#8A8A8A"/>
<rect x="446.667" y="13.4648" width="103.333" height="103.333" rx="51.6667" fill="#1B5BBC"/>
<path d="M460.357 70.6318V59.4318H464.501C465.28 59.4318 465.963 59.5652 466.549 59.8318C467.147 60.0878 467.616 60.4665 467.957 60.9678C468.299 61.4692 468.469 62.0772 468.469 62.7918C468.469 63.5065 468.299 64.1198 467.957 64.6318C467.616 65.1332 467.147 65.5172 466.549 65.7838C465.963 66.0398 465.28 66.1678 464.501 66.1678H462.405V70.6318H460.357ZM462.405 64.4238H464.453C465.168 64.4238 465.669 64.2745 465.957 63.9758C466.245 63.6665 466.389 63.2718 466.389 62.7918C466.389 62.3225 466.245 61.9385 465.957 61.6398C465.669 61.3305 465.168 61.1758 464.453 61.1758H462.405V64.4238ZM470.271 70.6318V59.4318H472.303V63.6238C472.581 63.2505 472.949 62.9732 473.407 62.7918C473.877 62.5998 474.346 62.5038 474.815 62.5038C475.733 62.5038 476.485 62.8025 477.071 63.3998C477.658 63.9865 477.951 64.8398 477.951 65.9598V70.6318H475.919V66.2318C475.919 65.6345 475.765 65.1545 475.455 64.7918C475.157 64.4185 474.714 64.2318 474.127 64.2318C473.541 64.2318 473.087 64.4185 472.767 64.7918C472.458 65.1545 472.303 65.6345 472.303 66.2318V70.6318H470.271ZM482.328 70.8238C481.859 70.8238 481.421 70.7278 481.016 70.5358C480.611 70.3438 480.28 70.0718 480.024 69.7198C479.779 69.3572 479.656 68.9305 479.656 68.4398C479.656 67.8532 479.8 67.3732 480.088 66.9998C480.376 66.6265 480.771 66.3492 481.272 66.1678C481.784 65.9865 482.355 65.8958 482.984 65.8958H484.872C484.872 65.5332 484.813 65.2292 484.696 64.9838C484.589 64.7385 484.424 64.5518 484.2 64.4238C483.987 64.2852 483.72 64.2158 483.4 64.2158C483.027 64.2158 482.691 64.3012 482.392 64.4718C482.104 64.6318 481.928 64.9038 481.864 65.2878H479.816C479.869 64.7118 480.067 64.2158 480.408 63.7998C480.749 63.3838 481.187 63.0638 481.72 62.8398C482.253 62.6158 482.824 62.5038 483.432 62.5038C484.179 62.5038 484.808 62.6425 485.32 62.9198C485.843 63.1972 486.243 63.5918 486.52 64.1038C486.797 64.6052 486.936 65.2025 486.936 65.8958V68.3118C486.957 68.5465 487.043 68.7065 487.192 68.7918C487.341 68.8772 487.539 68.9198 487.784 68.9198V70.6318C487.283 70.6318 486.861 70.5838 486.52 70.4878C486.189 70.3918 485.917 70.2532 485.704 70.0718C485.491 69.8798 485.309 69.6398 485.16 69.3518C484.915 69.7678 484.531 70.1198 484.008 70.4078C483.496 70.6852 482.936 70.8238 482.328 70.8238ZM482.92 69.1758C483.272 69.1758 483.592 69.0958 483.88 68.9358C484.179 68.7758 484.419 68.5518 484.6 68.2638C484.781 67.9758 484.872 67.6452 484.872 67.2718V67.2078H483.112C482.877 67.2078 482.653 67.2452 482.44 67.3198C482.227 67.3838 482.056 67.4905 481.928 67.6398C481.8 67.7785 481.736 67.9705 481.736 68.2158C481.736 68.5465 481.848 68.7918 482.072 68.9518C482.307 69.1012 482.589 69.1758 482.92 69.1758ZM489.411 70.6318V62.6958H491.443V63.8798C491.72 63.4318 492.072 63.0905 492.499 62.8558C492.926 62.6212 493.4 62.5038 493.923 62.5038V64.6478H493.379C492.728 64.6478 492.243 64.8025 491.923 65.1118C491.603 65.4212 491.443 65.9385 491.443 66.6638V70.6318H489.411ZM495.52 70.6318V62.6958H497.552V63.6078C497.818 63.2345 498.16 62.9572 498.576 62.7758C498.992 62.5945 499.429 62.5038 499.888 62.5038C500.485 62.5038 501.04 62.6318 501.552 62.8878C502.074 63.1332 502.48 63.5225 502.768 64.0558C503.034 63.5652 503.402 63.1865 503.872 62.9198C504.352 62.6425 504.874 62.5038 505.44 62.5038C506.048 62.5038 506.597 62.6318 507.088 62.8878C507.589 63.1332 507.984 63.5118 508.272 64.0238C508.56 64.5358 508.704 65.1758 508.704 65.9438V70.6318H506.672V66.2318C506.672 65.6345 506.528 65.1598 506.24 64.8078C505.952 64.4558 505.509 64.2798 504.912 64.2798C504.325 64.2798 503.882 64.4558 503.584 64.8078C503.285 65.1598 503.136 65.6345 503.136 66.2318V70.6318H501.104V66.2318C501.104 65.6238 500.949 65.1492 500.64 64.8078C500.341 64.4558 499.909 64.2798 499.344 64.2798C498.864 64.2798 498.442 64.4345 498.08 64.7438C497.728 65.0425 497.552 65.5385 497.552 66.2318V70.6318H495.52ZM513.092 70.8238C512.622 70.8238 512.185 70.7278 511.78 70.5358C511.374 70.3438 511.044 70.0718 510.788 69.7198C510.542 69.3572 510.42 68.9305 510.42 68.4398C510.42 67.8532 510.564 67.3732 510.852 66.9998C511.14 66.6265 511.534 66.3492 512.036 66.1678C512.548 65.9865 513.118 65.8958 513.748 65.8958H515.636C515.636 65.5332 515.577 65.2292 515.46 64.9838C515.353 64.7385 515.188 64.5518 514.964 64.4238C514.75 64.2852 514.484 64.2158 514.164 64.2158C513.79 64.2158 513.454 64.3012 513.156 64.4718C512.868 64.6318 512.692 64.9038 512.628 65.2878H510.58C510.633 64.7118 510.83 64.2158 511.172 63.7998C511.513 63.3838 511.95 63.0638 512.484 62.8398C513.017 62.6158 513.588 62.5038 514.196 62.5038C514.942 62.5038 515.572 62.6425 516.084 62.9198C516.606 63.1972 517.006 63.5918 517.284 64.1038C517.561 64.6052 517.7 65.2025 517.7 65.8958V68.3118C517.721 68.5465 517.806 68.7065 517.956 68.7918C518.105 68.8772 518.302 68.9198 518.548 68.9198V70.6318C518.046 70.6318 517.625 70.5838 517.284 70.4878C516.953 70.3918 516.681 70.2532 516.468 70.0718C516.254 69.8798 516.073 69.6398 515.924 69.3518C515.678 69.7678 515.294 70.1198 514.772 70.4078C514.26 70.6852 513.7 70.8238 513.092 70.8238ZM513.684 69.1758C514.036 69.1758 514.356 69.0958 514.644 68.9358C514.942 68.7758 515.182 68.5518 515.364 68.2638C515.545 67.9758 515.636 67.6452 515.636 67.2718V67.2078H513.876C513.641 67.2078 513.417 67.2452 513.204 67.3198C512.99 67.3838 512.82 67.4905 512.692 67.6398C512.564 67.7785 512.5 67.9705 512.5 68.2158C512.5 68.5465 512.612 68.7918 512.836 68.9518C513.07 69.1012 513.353 69.1758 513.684 69.1758ZM523.778 70.8238C522.978 70.8238 522.279 70.6478 521.682 70.2958C521.084 69.9332 520.62 69.4425 520.29 68.8238C519.959 68.1945 519.794 67.4745 519.794 66.6638C519.794 65.8638 519.954 65.1492 520.274 64.5198C520.604 63.8905 521.068 63.3998 521.666 63.0478C522.263 62.6852 522.967 62.5038 523.778 62.5038C524.738 62.5038 525.548 62.7438 526.21 63.2238C526.882 63.7038 527.335 64.4132 527.57 65.3518H525.378C525.282 65.0425 525.095 64.7812 524.818 64.5678C524.551 64.3438 524.199 64.2318 523.762 64.2318C523.324 64.2318 522.967 64.3438 522.69 64.5678C522.412 64.7918 522.204 65.0905 522.066 65.4638C521.938 65.8265 521.874 66.2265 521.874 66.6638C521.874 67.1012 521.938 67.5065 522.066 67.8798C522.204 68.2425 522.412 68.5358 522.69 68.7598C522.967 68.9732 523.324 69.0798 523.762 69.0798C524.178 69.0798 524.519 68.9892 524.786 68.8078C525.052 68.6158 525.25 68.3385 525.378 67.9758H527.57C527.431 68.5732 527.18 69.0852 526.818 69.5118C526.466 69.9385 526.028 70.2638 525.506 70.4878C524.994 70.7118 524.418 70.8238 523.778 70.8238ZM530.129 74.1518L531.873 70.2638L528.657 62.6958H530.945L532.993 68.1038L535.089 62.6958H537.249L532.289 74.1518H530.129Z" fill="white"/>
</svg>
