<svg width="261" height="35" viewBox="0 0 261 35" fill="none" xmlns="http://www.w3.org/2000/svg">
<g clip-path="url(#clip0_56_4931)">
<path d="M260.258 16.4321L247.338 0.553729C247.034 0.208547 246.579 0 246.123 0H1.52351C0.915544 0 0.383578 0.273269 0.155591 0.762277C-0.0723952 1.2441 -0.0723952 1.79782 0.307582 2.20773L10.643 14.8428C11.8589 16.2955 11.8589 18.2947 10.643 19.7473L0.383578 32.3105C0.00360025 32.7276 0.00360025 33.2741 0.231587 33.7632C0.535568 34.245 0.991543 34.5254 1.5995 34.5254H246.199C246.655 34.5254 247.11 34.3169 247.414 33.9717L260.334 18.0933C260.789 17.6115 260.789 16.9212 260.258 16.4393V16.4321Z" fill="#2C992C"/>
<path d="M103.106 21.422V11.7549H106.683C107.355 11.7549 107.944 11.8699 108.45 12.1001C108.966 12.3211 109.371 12.648 109.666 13.0807C109.961 13.5133 110.107 14.0381 110.107 14.655C110.107 15.2719 109.961 15.8013 109.666 16.2432C109.371 16.6759 108.966 17.0073 108.45 17.2375C107.944 17.4585 107.355 17.569 106.683 17.569H104.873V21.422H103.106ZM104.873 16.0637H106.641C107.258 16.0637 107.691 15.9348 107.939 15.677C108.188 15.41 108.312 15.0693 108.312 14.655C108.312 14.2499 108.188 13.9185 107.939 13.6607C107.691 13.3937 107.258 13.2602 106.641 13.2602H104.873V16.0637ZM111.528 21.422V14.5722H113.282V15.5941C113.522 15.2074 113.826 14.9128 114.194 14.7103C114.562 14.5077 114.972 14.4064 115.423 14.4064V16.257H114.953C114.392 16.257 113.973 16.3905 113.696 16.6575C113.42 16.9245 113.282 17.371 113.282 17.9971V21.422H111.528ZM120.008 21.5877C119.318 21.5877 118.701 21.4404 118.158 21.1458C117.624 20.842 117.205 20.4184 116.901 19.8753C116.597 19.3321 116.445 18.706 116.445 17.9971C116.445 17.2513 116.606 16.6115 116.929 16.0775C117.26 15.5343 117.697 15.12 118.241 14.8345C118.793 14.5491 119.401 14.4064 120.064 14.4064C120.754 14.4064 121.371 14.5583 121.914 14.8622C122.457 15.1568 122.885 15.5711 123.199 16.1051C123.521 16.6391 123.682 17.2697 123.682 17.9971C123.682 18.6876 123.525 19.3045 123.212 19.8476C122.899 20.3908 122.467 20.8189 121.914 21.132C121.371 21.4358 120.735 21.5877 120.008 21.5877ZM120.036 20.0548C120.404 20.0548 120.721 19.9627 120.989 19.7786C121.265 19.5852 121.481 19.3321 121.638 19.019C121.794 18.6968 121.873 18.3469 121.873 17.9695C121.873 17.5368 121.785 17.1685 121.61 16.8646C121.445 16.5608 121.224 16.3306 120.948 16.1741C120.671 16.0176 120.368 15.9394 120.036 15.9394C119.677 15.9394 119.359 16.0268 119.083 16.2018C118.816 16.3767 118.604 16.6206 118.448 16.9337C118.3 17.2375 118.227 17.592 118.227 17.9971C118.227 18.4021 118.305 18.7612 118.462 19.0743C118.627 19.3873 118.848 19.6312 119.125 19.8062C119.401 19.9719 119.705 20.0548 120.036 20.0548ZM129.317 21.5877C128.856 21.5877 128.424 21.5003 128.018 21.3253C127.623 21.1412 127.292 20.8603 127.024 20.4829V21.422H125.256V11.7549H127.01V15.5389C127.268 15.1614 127.6 14.8806 128.005 14.6964C128.41 14.5031 128.847 14.4064 129.317 14.4064C129.971 14.4064 130.532 14.5676 131.001 14.8898C131.48 15.2028 131.849 15.631 132.106 16.1741C132.364 16.7082 132.493 17.3066 132.493 17.9695C132.493 18.6231 132.364 19.2262 132.106 19.7786C131.849 20.331 131.48 20.7729 131.001 21.1044C130.532 21.4266 129.971 21.5877 129.317 21.5877ZM128.847 20.041C129.216 20.041 129.537 19.9489 129.814 19.7648C130.09 19.5807 130.307 19.3321 130.463 19.019C130.62 18.6968 130.698 18.3469 130.698 17.9695C130.698 17.5368 130.61 17.173 130.435 16.8785C130.269 16.5746 130.044 16.3444 129.758 16.1879C129.482 16.0315 129.178 15.9532 128.847 15.9532C128.488 15.9532 128.17 16.0406 127.894 16.2156C127.627 16.3905 127.416 16.6344 127.259 16.9475C127.103 17.2513 127.024 17.6012 127.024 17.9971C127.024 18.4021 127.103 18.7612 127.259 19.0743C127.425 19.3781 127.645 19.6174 127.922 19.7924C128.198 19.9581 128.507 20.041 128.847 20.041ZM133.996 21.422V11.7549H135.763V21.422H133.996ZM140.774 21.5877C140.056 21.5877 139.434 21.4312 138.909 21.1182C138.394 20.8051 137.994 20.377 137.708 19.8338C137.423 19.2907 137.28 18.6783 137.28 17.9971C137.28 17.2697 137.427 16.6391 137.722 16.1051C138.017 15.5711 138.426 15.1568 138.951 14.8622C139.476 14.5583 140.083 14.4064 140.774 14.4064C141.456 14.4064 142.049 14.5538 142.555 14.8484C143.071 15.1429 143.472 15.5481 143.757 16.0637C144.052 16.5792 144.199 17.173 144.199 17.8452C144.199 17.9649 144.194 18.0845 144.185 18.2042C144.176 18.3147 144.162 18.4206 144.143 18.5219H139.061C139.089 18.8441 139.172 19.1295 139.31 19.3781C139.457 19.6174 139.651 19.8062 139.89 19.9443C140.139 20.0732 140.42 20.1376 140.732 20.1376C141.055 20.1376 141.331 20.0686 141.561 19.9305C141.801 19.7924 141.989 19.5807 142.127 19.2952H144.019C143.891 19.7003 143.683 20.0778 143.398 20.4277C143.113 20.7775 142.749 21.0584 142.307 21.2701C141.874 21.4818 141.363 21.5877 140.774 21.5877ZM139.075 17.348H142.376C142.367 16.8877 142.196 16.524 141.865 16.257C141.543 15.99 141.16 15.8565 140.719 15.8565C140.341 15.8565 139.992 15.9762 139.669 16.2156C139.347 16.4458 139.149 16.8232 139.075 17.348ZM145.687 21.422V14.5722H147.441V15.3593C147.671 15.0371 147.965 14.7977 148.324 14.6412C148.684 14.4847 149.062 14.4064 149.457 14.4064C149.973 14.4064 150.451 14.5169 150.893 14.7379C151.345 14.9496 151.694 15.2857 151.943 15.746C152.173 15.3225 152.491 14.9957 152.896 14.7655C153.31 14.5261 153.761 14.4064 154.249 14.4064C154.774 14.4064 155.249 14.5169 155.671 14.7379C156.105 14.9496 156.445 15.2765 156.693 15.7184C156.942 16.1603 157.066 16.7127 157.066 17.3756V21.422H155.312V17.6242C155.312 17.1086 155.188 16.6989 154.94 16.3951C154.691 16.0913 154.309 15.9394 153.793 15.9394C153.287 15.9394 152.905 16.0913 152.647 16.3951C152.39 16.6989 152.26 17.1086 152.26 17.6242V21.422H150.506V17.6242C150.506 17.0994 150.374 16.6897 150.106 16.3951C149.849 16.0913 149.476 15.9394 148.987 15.9394C148.573 15.9394 148.21 16.0729 147.896 16.3399C147.593 16.5977 147.441 17.0258 147.441 17.6242V21.422H145.687Z" fill="white"/>
</g>
<defs>
<clipPath id="clip0_56_4931">
<rect width="260.667" height="34.5254" fill="white"/>
</clipPath>
</defs>
</svg>
