<svg width="261" height="35" viewBox="0 0 261 35" fill="none" xmlns="http://www.w3.org/2000/svg">
<g clip-path="url(#clip0_56_4928)">
<path d="M260.257 16.3347C260.257 16.3327 260.257 16.3306 260.256 16.329L247.338 0.55034C247.034 0.207271 246.578 0 246.122 0H1.52012C0.680775 0 0.000278478 0.640438 9.6206e-05 1.43046C4.13171e-05 1.66836 1.17885e-06 1.90627 1.71206e-06 2.14418V16.0814C2.18554e-05 17.8682 0 18.2255 0 20.3697L8.30565e-05 32.0566C5.09424e-05 32.2358 8.36651e-05 32.506 0.000127011 32.8117C0.000244613 33.6413 0.714769 34.314 1.59612 34.314H246.198C246.654 34.314 247.11 34.1067 247.414 33.7637L260.333 17.9826C260.789 17.5046 260.789 16.8202 260.26 16.3414C260.258 16.3397 260.257 16.3372 260.257 16.3347Z" fill="#31B731"/>
<path d="M89.2542 20.8091V11.2012H93.1181C94.1781 11.2012 94.9847 11.4253 95.5389 11.8737C96.103 12.3129 96.3847 12.894 96.3847 13.6169C96.3847 14.1476 96.2489 14.5822 95.9763 14.9208C95.7047 15.2502 95.3639 15.4973 94.9556 15.662C95.2964 15.7809 95.6072 15.9593 95.8888 16.1973C96.1805 16.4352 96.4138 16.7189 96.5888 17.0483C96.7638 17.3685 96.8513 17.7208 96.8513 18.1052C96.8513 18.6084 96.7201 19.066 96.4576 19.4777C96.1951 19.8895 95.8159 20.2143 95.3201 20.4523C94.8243 20.6901 94.2173 20.8091 93.4973 20.8091H89.2542ZM91.1207 19.313H93.3223C93.8764 19.313 94.2847 19.194 94.5472 18.9562C94.8198 18.7182 94.9556 18.375 94.9556 17.9267C94.9556 17.4783 94.8152 17.1352 94.5327 16.8973C94.251 16.6593 93.8381 16.5404 93.2931 16.5404H91.1207V19.313ZM91.1207 15.0443H92.9577C93.4827 15.0443 93.8673 14.9483 94.1097 14.7561C94.3531 14.5548 94.4743 14.2574 94.4743 13.8639C94.4743 13.4887 94.3531 13.2005 94.1097 12.9992C93.8764 12.7979 93.4827 12.6973 92.9285 12.6973H91.1207V15.0443ZM100.72 20.9738C100.293 20.9738 99.8936 20.8915 99.5245 20.7268C99.1554 20.5621 98.8537 20.3287 98.6204 20.0268C98.3971 19.7156 98.285 19.3496 98.285 18.9287C98.285 18.4254 98.4162 18.0136 98.6787 17.6934C98.9412 17.3731 99.3012 17.1352 99.7578 16.9797C100.224 16.8241 100.745 16.7463 101.318 16.7463H103.039C103.039 16.4352 102.985 16.1744 102.879 15.964C102.781 15.7535 102.631 15.5934 102.426 15.4836C102.232 15.3646 101.989 15.3051 101.697 15.3051C101.357 15.3051 101.051 15.3783 100.779 15.5247C100.516 15.662 100.356 15.8953 100.297 16.2248H98.4308C98.4791 15.7306 98.6596 15.3051 98.9704 14.9483C99.2812 14.5914 99.6804 14.3169 100.166 14.1247C100.652 13.9326 101.172 13.8365 101.727 13.8365C102.407 13.8365 102.981 13.9554 103.447 14.1934C103.924 14.4312 104.289 14.7698 104.541 15.2091C104.793 15.6391 104.92 16.1515 104.92 16.7463V18.8189C104.939 19.0202 105.018 19.1574 105.153 19.2307C105.289 19.3038 105.47 19.3405 105.693 19.3405V20.8091C105.236 20.8091 104.852 20.7679 104.541 20.6856C104.239 20.6032 103.991 20.4842 103.797 20.3287C103.603 20.164 103.437 19.9581 103.301 19.7111C103.078 20.0679 102.728 20.3699 102.251 20.617C101.785 20.8548 101.274 20.9738 100.72 20.9738ZM101.26 19.5601C101.581 19.5601 101.872 19.4915 102.135 19.3542C102.407 19.2169 102.626 19.0248 102.791 18.7777C102.956 18.5307 103.039 18.247 103.039 17.9267V17.8718H101.435C101.221 17.8718 101.017 17.9038 100.822 17.9679C100.628 18.0228 100.472 18.1143 100.356 18.2424C100.239 18.3613 100.181 18.526 100.181 18.7365C100.181 19.0202 100.283 19.2307 100.487 19.3679C100.701 19.496 100.958 19.5601 101.26 19.5601ZM110.46 20.9738C109.731 20.9738 109.094 20.8228 108.549 20.5209C108.005 20.2097 107.582 19.7888 107.281 19.2581C106.979 18.7182 106.829 18.1005 106.829 17.4052C106.829 16.7189 106.974 16.1058 107.266 15.5659C107.568 15.026 107.991 14.6051 108.535 14.3032C109.079 13.992 109.721 13.8365 110.46 13.8365C111.335 13.8365 112.074 14.0424 112.676 14.4541C113.289 14.8659 113.702 15.4744 113.916 16.2797H111.918C111.831 16.0142 111.66 15.7901 111.408 15.6071C111.164 15.4149 110.843 15.3189 110.445 15.3189C110.047 15.3189 109.721 15.4149 109.468 15.6071C109.216 15.7993 109.026 16.0554 108.899 16.3757C108.783 16.6868 108.724 17.0299 108.724 17.4052C108.724 17.7803 108.783 18.128 108.899 18.4483C109.026 18.7594 109.216 19.0111 109.468 19.2032C109.721 19.3862 110.047 19.4777 110.445 19.4777C110.824 19.4777 111.135 19.3999 111.378 19.2444C111.622 19.0797 111.801 18.8417 111.918 18.5307H113.916C113.789 19.0431 113.561 19.4823 113.23 19.8483C112.91 20.2143 112.511 20.4934 112.035 20.6856C111.568 20.8777 111.043 20.9738 110.46 20.9738ZM115.577 20.8091V11.2012H117.444V16.8836L119.85 14.0012H122.256L119.077 17.4189L122.3 20.8091H119.894L117.444 17.913V20.8091H115.577ZM126.703 23.9935C126.041 23.9935 125.449 23.9248 124.924 23.7876C124.399 23.6503 123.981 23.4261 123.67 23.115C123.368 22.8131 123.218 22.415 123.218 21.9209C123.218 21.6006 123.291 21.3215 123.437 21.0836C123.582 20.8548 123.806 20.6535 124.107 20.4797C123.854 20.3424 123.664 20.1686 123.539 19.9581C123.412 19.7476 123.349 19.5052 123.349 19.2307C123.349 18.6267 123.65 18.1601 124.253 17.8307C124.039 17.6201 123.874 17.3823 123.757 17.1169C123.641 16.8424 123.582 16.5587 123.582 16.2659C123.582 15.7718 123.708 15.3463 123.962 14.9894C124.214 14.6234 124.564 14.3397 125.012 14.1385C125.458 13.9371 125.969 13.8365 126.543 13.8365C126.96 13.8365 127.345 13.8914 127.695 14.0012H130.29V15.3189H129.284C129.343 15.4744 129.391 15.6299 129.43 15.7855C129.478 15.9411 129.503 16.1012 129.503 16.2659C129.503 16.7417 129.372 17.1626 129.109 17.5287C128.847 17.8946 128.491 18.1829 128.045 18.3934C127.607 18.5947 127.106 18.6954 126.543 18.6954C126.299 18.6954 126.076 18.677 125.872 18.6405C125.668 18.5947 125.468 18.526 125.274 18.4346C125.06 18.5352 124.953 18.6954 124.953 18.915C124.953 19.3176 125.308 19.5189 126.018 19.5189H127.345C127.928 19.5189 128.424 19.5966 128.832 19.7522C129.25 19.8986 129.566 20.1319 129.78 20.4523C129.993 20.7725 130.101 21.1797 130.101 21.6738C130.101 22.1496 129.95 22.5614 129.649 22.9091C129.347 23.2568 128.939 23.5222 128.424 23.7052C127.908 23.8974 127.335 23.9935 126.703 23.9935ZM126.703 22.6209C127.17 22.6209 127.563 22.5476 127.884 22.4013C128.214 22.264 128.38 22.0535 128.38 21.7699C128.38 21.23 127.981 20.9601 127.184 20.9601H126.134C125.745 20.9601 125.444 21.0287 125.23 21.166C125.026 21.3032 124.924 21.5045 124.924 21.7699C124.924 21.9803 125.006 22.145 125.172 22.264C125.337 22.3921 125.556 22.4836 125.828 22.5385C126.1 22.5934 126.391 22.6209 126.703 22.6209ZM126.528 17.3228C126.897 17.3228 127.199 17.2267 127.432 17.0346C127.675 16.8332 127.797 16.577 127.797 16.2659C127.797 15.964 127.675 15.7123 127.432 15.511C127.199 15.3097 126.897 15.2091 126.528 15.2091C126.158 15.2091 125.857 15.3097 125.624 15.511C125.4 15.7123 125.289 15.964 125.289 16.2659C125.289 16.577 125.395 16.8332 125.609 17.0346C125.833 17.2267 126.139 17.3228 126.528 17.3228ZM131.782 20.8091V14.0012H133.634V15.0169C133.887 14.6326 134.208 14.3397 134.597 14.1385C134.986 13.9371 135.418 13.8365 135.895 13.8365V15.6757H135.399C134.806 15.6757 134.364 15.8084 134.072 16.0738C133.78 16.3391 133.634 16.7829 133.634 17.4052V20.8091H131.782ZM140.737 20.9738C140.008 20.9738 139.356 20.8274 138.783 20.5346C138.219 20.2326 137.777 19.8117 137.456 19.2718C137.135 18.7319 136.975 18.1097 136.975 17.4052C136.975 16.664 137.144 16.028 137.485 15.4973C137.835 14.9574 138.296 14.5456 138.871 14.262C139.454 13.9783 140.096 13.8365 140.796 13.8365C141.525 13.8365 142.175 13.9875 142.75 14.2894C143.323 14.5822 143.775 14.994 144.106 15.5247C144.446 16.0554 144.616 16.6822 144.616 17.4052C144.616 18.0914 144.45 18.7045 144.12 19.2444C143.79 19.7842 143.333 20.2097 142.75 20.5209C142.175 20.8228 141.505 20.9738 140.737 20.9738ZM140.766 19.4503C141.155 19.4503 141.49 19.3587 141.773 19.1758C142.064 18.9836 142.292 18.7319 142.458 18.4209C142.623 18.1005 142.706 17.7528 142.706 17.3777C142.706 16.9476 142.613 16.5816 142.429 16.2797C142.254 15.9777 142.02 15.7489 141.729 15.5934C141.437 15.4378 141.116 15.36 140.766 15.36C140.387 15.36 140.052 15.4469 139.76 15.6208C139.478 15.7946 139.254 16.0371 139.089 16.3483C138.933 16.6502 138.856 17.0025 138.856 17.4052C138.856 17.8077 138.938 18.1646 139.104 18.4758C139.279 18.7868 139.512 19.0293 139.804 19.2032C140.096 19.3679 140.416 19.4503 140.766 19.4503ZM149.108 20.9738C148.485 20.9738 147.956 20.8503 147.518 20.6032C147.081 20.347 146.745 19.9993 146.512 19.5601C146.279 19.1117 146.162 18.6038 146.162 18.0365V14.0012H148.014V17.7758C148.014 18.279 148.15 18.6907 148.422 19.0111C148.704 19.3313 149.112 19.4915 149.647 19.4915C150.201 19.4915 150.614 19.3358 150.887 19.0248C151.159 18.7136 151.295 18.2973 151.295 17.7758V14.0012H153.162V20.8091H151.295V20.013C151.052 20.3241 150.731 20.5621 150.333 20.7268C149.943 20.8915 149.535 20.9738 149.108 20.9738ZM155.05 20.8091V14.0012H156.902V14.7973C157.156 14.477 157.491 14.2391 157.908 14.0836C158.337 13.9188 158.764 13.8365 159.192 13.8365C160.028 13.8365 160.714 14.0926 161.248 14.6051C161.783 15.1083 162.05 15.8404 162.05 16.8012V20.8091H160.198V17.0346C160.198 16.5221 160.058 16.1103 159.775 15.7993C159.503 15.4789 159.1 15.3189 158.565 15.3189C158.031 15.3189 157.617 15.4789 157.325 15.7993C157.043 16.1103 156.902 16.5221 156.902 17.0346V20.8091H155.05ZM166.943 20.9738C166.243 20.9738 165.641 20.8137 165.135 20.4934C164.639 20.164 164.256 19.7293 163.983 19.1895C163.721 18.6405 163.589 18.0365 163.589 17.3777C163.589 16.7189 163.725 16.124 163.998 15.5934C164.27 15.0534 164.658 14.6279 165.164 14.3169C165.67 13.9966 166.262 13.8365 166.943 13.8365C167.41 13.8365 167.852 13.9279 168.27 14.111C168.698 14.294 169.058 14.5593 169.349 14.9071V11.2012H171.231V20.8091H169.349V19.8346C169.106 20.2097 168.766 20.4934 168.329 20.6856C167.891 20.8777 167.429 20.9738 166.943 20.9738ZM167.425 19.4366C167.814 19.4366 168.149 19.3496 168.431 19.1758C168.722 19.0019 168.951 18.764 169.116 18.462C169.281 18.1509 169.364 17.7986 169.364 17.4052C169.364 16.9201 169.262 16.5313 169.058 16.2385C168.854 15.9365 168.601 15.7169 168.3 15.5796C167.998 15.4424 167.702 15.3738 167.41 15.3738C167.031 15.3738 166.695 15.4607 166.404 15.6346C166.122 15.8084 165.898 16.0463 165.733 16.3483C165.568 16.6411 165.485 16.9842 165.485 17.3777C165.485 17.762 165.568 18.1097 165.733 18.4209C165.898 18.7319 166.127 18.979 166.418 19.162C166.71 19.345 167.045 19.4366 167.425 19.4366Z" fill="white"/>
</g>
<defs>
<clipPath id="clip0_56_4928">
<rect width="260.667" height="34.3141" fill="white"/>
</clipPath>
</defs>
</svg>
