<svg width="261" height="37" viewBox="0 0 261 37" fill="none" xmlns="http://www.w3.org/2000/svg">
<g clip-path="url(#clip0_56_4934)">
<path d="M260.667 17.3589V1.82278C260.667 0.816091 259.855 7.95322e-06 258.848 4.67002e-06C257.218 -6.4687e-07 253.807 2.73215e-08 246.121 2.78535e-08H1.52351C0.915542 2.78535e-08 0.383576 0.288557 0.155591 0.804921C-0.0723948 1.3137 -0.0723949 1.8984 0.30758 2.33124L10.6429 15.6732C11.8589 17.2071 11.8589 19.3181 10.6429 20.8521L0.383576 34.1181C0.00360025 34.5585 0.00360028 35.1356 0.231586 35.652C0.535566 36.1608 0.991536 36.4569 1.5995 36.4569H246.197C246.56 36.4569 255.022 36.4569 258.849 36.4569C259.856 36.4569 260.667 35.6408 260.667 34.634V20.123C260.667 19.3637 260.667 18.6043 260.667 17.845V17.3589Z" fill="#237F23"/>
<path d="M106.601 22.7948C105.891 22.7948 105.245 22.6732 104.661 22.4302C104.087 22.1871 103.631 21.8274 103.291 21.3511C102.95 20.8649 102.77 20.2622 102.751 19.5428H104.72C104.739 20.0191 104.909 20.4178 105.23 20.7386C105.56 21.0594 106.012 21.2198 106.586 21.2198C107.082 21.2198 107.476 21.1032 107.767 20.8699C108.059 20.6365 108.205 20.3205 108.205 19.922C108.205 19.7178 108.17 19.5379 108.103 19.3824C108.045 19.2268 107.928 19.081 107.753 18.9449C107.578 18.8088 107.33 18.6775 107.009 18.5512C106.697 18.415 106.285 18.2644 105.77 18.0991C105.099 17.8755 104.559 17.6179 104.151 17.3263C103.743 17.0346 103.445 16.7089 103.261 16.3492C103.086 15.9797 102.999 15.5812 102.999 15.1534C102.999 14.5118 103.149 13.9771 103.451 13.5493C103.762 13.1118 104.175 12.7861 104.69 12.5723C105.215 12.3486 105.793 12.2369 106.426 12.2369C107.067 12.2369 107.645 12.3486 108.161 12.5723C108.686 12.7958 109.109 13.1264 109.43 13.5639C109.751 14.0014 109.916 14.5409 109.926 15.1826H107.928C107.918 14.8131 107.772 14.4923 107.49 14.2201C107.218 13.9479 106.839 13.8118 106.353 13.8118C105.964 13.8118 105.633 13.9139 105.361 14.118C105.089 14.3222 104.953 14.6235 104.953 15.0222C104.953 15.3138 105.06 15.5617 105.274 15.7659C105.497 15.9701 105.793 16.1499 106.163 16.3055C106.542 16.4513 106.96 16.6068 107.417 16.7721C107.67 16.8596 107.952 16.9713 108.263 17.1075C108.584 17.2436 108.89 17.4283 109.182 17.6617C109.474 17.8852 109.712 18.1721 109.897 18.522C110.091 18.8623 110.188 19.2852 110.188 19.7907C110.188 20.4129 110.028 20.9476 109.707 21.3948C109.395 21.842 108.968 22.1871 108.424 22.4302C107.889 22.6732 107.281 22.7948 106.601 22.7948ZM115.395 22.7948C114.666 22.7948 114.015 22.6392 113.441 22.3281C112.878 22.0073 112.435 21.5601 112.114 20.9865C111.793 20.4129 111.633 19.7518 111.633 19.0033C111.633 18.2158 111.803 17.5401 112.143 16.9763C112.493 16.4026 112.955 15.9651 113.529 15.6638C114.112 15.3624 114.753 15.2118 115.453 15.2118C116.183 15.2118 116.834 15.3722 117.408 15.693C117.982 16.0041 118.434 16.4415 118.764 17.0054C119.105 17.5692 119.274 18.2352 119.274 19.0033C119.274 19.7324 119.109 20.3837 118.778 20.9574C118.448 21.5309 117.991 21.983 117.408 22.3136C116.834 22.6344 116.163 22.7948 115.395 22.7948ZM115.424 21.1761C115.813 21.1761 116.149 21.0789 116.431 20.8844C116.722 20.6803 116.951 20.4129 117.116 20.0824C117.282 19.7421 117.364 19.3727 117.364 18.9741C117.364 18.5171 117.272 18.1283 117.087 17.8075C116.912 17.4867 116.678 17.2436 116.387 17.0783C116.095 16.913 115.774 16.8304 115.424 16.8304C115.045 16.8304 114.71 16.9228 114.418 17.1075C114.136 17.2922 113.913 17.5498 113.747 17.8804C113.592 18.2012 113.514 18.5754 113.514 19.0033C113.514 19.431 113.597 19.8102 113.762 20.1407C113.937 20.4712 114.17 20.7289 114.462 20.9136C114.753 21.0886 115.074 21.1761 115.424 21.1761ZM120.866 22.6198V12.4119H122.733V22.6198H120.866ZM127.469 22.7948C126.846 22.7948 126.317 22.6635 125.879 22.4011C125.442 22.1288 125.106 21.7594 124.873 21.2928C124.64 20.8164 124.523 20.2768 124.523 19.6741V15.3867H126.375V19.397C126.375 19.9316 126.511 20.3691 126.783 20.7095C127.065 21.0497 127.473 21.2198 128.008 21.2198C128.562 21.2198 128.975 21.0545 129.248 20.724C129.519 20.3935 129.656 19.9511 129.656 19.397V15.3867H131.523V22.6198H129.656V21.774C129.413 22.1045 129.092 22.3573 128.694 22.5323C128.305 22.7073 127.896 22.7948 127.469 22.7948ZM136.255 22.6198C135.477 22.6198 134.889 22.4302 134.49 22.0511C134.101 21.6719 133.907 21.1032 133.907 20.3449V16.9471H132.974V15.3867H133.907V13.6222H135.774V15.3867H137.421V16.9471H135.774V20.3595C135.774 20.6316 135.847 20.8164 135.992 20.9136C136.138 21.0108 136.328 21.0594 136.561 21.0594H137.421V22.6198H136.255ZM140.114 14.4535C139.783 14.4535 139.496 14.3368 139.253 14.1035C139.02 13.8604 138.903 13.5736 138.903 13.2431C138.903 12.9028 139.02 12.616 139.253 12.3827C139.496 12.1494 139.783 12.0327 140.114 12.0327C140.454 12.0327 140.741 12.1494 140.974 12.3827C141.208 12.616 141.324 12.9028 141.324 13.2431C141.324 13.5736 141.208 13.8604 140.974 14.1035C140.741 14.3368 140.454 14.4535 140.114 14.4535ZM139.181 22.6198V15.3867H141.047V22.6198H139.181ZM146.524 22.7948C145.795 22.7948 145.143 22.6392 144.57 22.3281C144.006 22.0073 143.564 21.5601 143.243 20.9865C142.922 20.4129 142.761 19.7518 142.761 19.0033C142.761 18.2158 142.931 17.5401 143.272 16.9763C143.622 16.4026 144.083 15.9651 144.657 15.6638C145.241 15.3624 145.882 15.2118 146.582 15.2118C147.311 15.2118 147.962 15.3722 148.536 15.693C149.11 16.0041 149.562 16.4415 149.892 17.0054C150.232 17.5692 150.403 18.2352 150.403 19.0033C150.403 19.7324 150.237 20.3837 149.907 20.9574C149.576 21.5309 149.12 21.983 148.536 22.3136C147.962 22.6344 147.291 22.7948 146.524 22.7948ZM146.553 21.1761C146.941 21.1761 147.277 21.0789 147.559 20.8844C147.851 20.6803 148.079 20.4129 148.245 20.0824C148.41 19.7421 148.493 19.3727 148.493 18.9741C148.493 18.5171 148.4 18.1283 148.215 17.8075C148.04 17.4867 147.807 17.2436 147.515 17.0783C147.224 16.913 146.903 16.8304 146.553 16.8304C146.174 16.8304 145.838 16.9228 145.547 17.1075C145.264 17.2922 145.041 17.5498 144.876 17.8804C144.72 18.2012 144.643 18.5754 144.643 19.0033C144.643 19.431 144.725 19.8102 144.891 20.1407C145.066 20.4712 145.299 20.7289 145.591 20.9136C145.882 21.0886 146.203 21.1761 146.553 21.1761ZM152.065 22.6198V15.3867H153.917V16.2325C154.17 15.8922 154.505 15.6395 154.924 15.4742C155.351 15.2993 155.779 15.2118 156.207 15.2118C157.043 15.2118 157.728 15.4839 158.263 16.0284C158.798 16.563 159.065 17.3408 159.065 18.3616V22.6198H157.213V18.6095C157.213 18.0651 157.072 17.6276 156.79 17.2971C156.518 16.9568 156.115 16.7867 155.58 16.7867C155.045 16.7867 154.632 16.9568 154.34 17.2971C154.059 17.6276 153.917 18.0651 153.917 18.6095V22.6198H152.065Z" fill="white"/>
</g>
<defs>
<clipPath id="clip0_56_4934">
<rect width="260.667" height="36.4569" fill="white"/>
</clipPath>
</defs>
</svg>
